<svg width="80" height="80" viewBox="0 0 80 80" fill="none" xmlns="http://www.w3.org/2000/svg">
<path d="M77.5 40C77.5 60.7107 60.7107 77.5 40 77.5C19.2893 77.5 2.5 60.7107 2.5 40C2.5 19.2893 19.2893 2.5 40 2.5C60.7107 2.5 77.5 19.2893 77.5 40Z" stroke="url(#paint0_linear)" stroke-width="5"/>
<path d="M52.9377 41.7602L51.5275 41.7699C51.0228 41.7734 50.6197 42.183 50.6232 42.6879L50.6292 43.5805C49.4172 43.8172 48.2683 44.3046 47.2562 45.0121L46.6136 44.3793C46.2542 44.0249 45.681 44.0279 45.3265 44.3871L44.3382 45.3891C43.984 45.7486 43.9864 46.3217 44.3462 46.6762L44.981 47.3031C44.2895 48.3275 43.8205 49.4849 43.604 50.7016L42.7075 50.7076C42.2028 50.7116 41.7997 51.1207 41.8032 51.6255L41.8132 53.0338C41.8172 53.5385 42.2262 53.9416 42.7312 53.938L43.6277 53.932C43.8626 55.1444 44.3473 56.2939 45.0535 57.307L44.4226 57.9477C44.0684 58.3072 44.0728 58.8803 44.4326 59.2348L45.4346 60.2231C45.7041 60.4889 46.0929 60.5544 46.4209 60.4184C46.5302 60.373 46.633 60.305 46.7217 60.2153L47.3486 59.5805C48.3731 60.2718 49.5302 60.741 50.7471 60.9574L50.7531 61.8559C50.7571 62.3606 51.1661 62.7638 51.671 62.7602L53.0773 62.7502C53.582 62.7462 53.9885 62.3385 53.9855 61.8342L53.9795 60.9396C55.192 60.7048 56.3412 60.2199 57.3545 59.5138L57.9912 60.1408C58.3506 60.4952 58.9277 60.4926 59.2822 60.1328L60.2705 59.1289C60.6247 58.7693 60.6223 58.1943 60.2625 57.8398L59.6316 57.2187C60.3245 56.193 60.7941 55.0331 61.0105 53.8144L61.8992 53.8084C62.404 53.8044 62.8071 53.3973 62.8035 52.8924L62.7935 51.4842C62.7895 50.9795 62.3823 50.5765 61.8775 50.5799L60.9888 50.5859C60.7538 49.3717 60.2668 48.2214 59.5591 47.207L60.1841 46.5723C60.5384 46.2127 60.5359 45.6377 60.1761 45.2832L59.1742 44.293C58.8149 43.9385 58.2397 43.9435 57.8851 44.3028L57.264 44.9317C56.2379 44.2406 55.0782 43.7717 53.8597 43.5567L53.8537 42.6641C53.8497 42.1594 53.4425 41.7564 52.9377 41.7598L52.9377 41.7602ZM52.4084 45.0336C54.2889 45.0614 56.0846 45.8208 57.4142 47.1508C58.7696 48.5062 59.5311 50.3444 59.5311 52.2611C59.5311 54.1778 58.7696 56.0161 57.4142 57.3715C56.0586 58.7268 54.22 59.4882 52.3029 59.4882C50.3858 59.4882 48.5472 58.7268 47.1916 57.3715C45.8362 56.0161 45.0747 54.1778 45.0747 52.2611C45.0747 50.3444 45.8362 48.5062 47.1916 47.1508C47.8753 46.4669 48.6893 45.9272 49.5854 45.5635C50.4814 45.1998 51.4414 45.0196 52.4084 45.0336Z" fill="#5E5E64"/>
<path d="M52.3959 45.8815C51.5424 45.8692 50.6951 46.0283 49.9042 46.3493C49.1132 46.6703 48.3948 47.1467 47.7913 47.7503C46.5949 48.9467 45.9229 50.5692 45.9229 52.261C45.9229 53.9527 46.5949 55.5752 47.7913 56.7716C48.9879 57.9679 50.6107 58.6399 52.3028 58.6399C53.995 58.6399 55.6178 57.9679 56.8144 56.7716C58.0108 55.5752 58.6828 53.9527 58.6828 52.261C58.6828 50.5692 58.0108 48.9467 56.8144 47.7503C55.6408 46.5764 54.0558 45.906 52.3959 45.8815ZM52.3252 50.6982C52.7324 50.7035 53.1214 50.8674 53.4096 51.155C53.5549 51.3002 53.6702 51.4726 53.7489 51.6624C53.8275 51.8521 53.868 52.0555 53.868 52.2609C53.868 52.4664 53.8275 52.6698 53.7489 52.8595C53.6702 53.0493 53.5549 53.2217 53.4096 53.3669C53.2644 53.5121 53.092 53.6273 52.9022 53.706C52.7125 53.7846 52.5091 53.825 52.3037 53.825C52.0983 53.825 51.8949 53.7846 51.7051 53.706C51.5154 53.6273 51.343 53.5121 51.1978 53.3669C51.0524 53.2217 50.9372 53.0493 50.8585 52.8595C50.7798 52.6698 50.7393 52.4664 50.7393 52.2609C50.7393 52.0555 50.7798 51.8521 50.8585 51.6624C50.9372 51.4726 51.0524 51.3002 51.1978 51.155C51.3456 51.0074 51.5216 50.891 51.7152 50.8125C51.9089 50.734 52.1163 50.6952 52.3252 50.6982Z" fill="url(#paint1_radial)"/>
<path d="M32.3749 17C31.8734 17 31.4687 17.4028 31.4687 17.9043L31.4707 19.0743C30.5322 19.2333 29.6108 19.4805 28.7188 19.8125L28.1348 18.8008C27.884 18.3665 27.3327 18.218 26.8984 18.4688L24.0938 20.0879C23.6594 20.3387 23.5101 20.8916 23.7617 21.3262L24.3418 22.3282C23.6097 22.9379 22.9368 23.6154 22.332 24.3516L21.3223 23.7696C20.888 23.5188 20.3347 23.6653 20.084 24.0997L18.4668 26.9043C18.216 27.3387 18.3625 27.8919 18.7969 28.1426L19.8125 28.7286C19.48 29.6199 19.2321 30.5407 19.0723 31.4786H17.9043C17.4028 31.4786 17.0004 31.8817 17 32.3829V35.6211C17 36.1227 17.4028 36.5293 17.9043 36.5293L19.0898 36.5273C19.2474 37.4637 19.4926 38.3831 19.8222 39.2735L18.8027 39.8633C18.3684 40.1141 18.2172 40.6671 18.4687 41.1016L20.0898 43.9063C20.3406 44.3407 20.894 44.4883 21.3281 44.2383L22.3378 43.6543C22.9471 44.3856 23.6239 45.0579 24.3593 45.6622L23.7695 46.6797C23.5187 47.1141 23.6652 47.6653 24.0995 47.9161L26.9062 49.5352C27.3405 49.786 27.8918 49.6375 28.1425 49.2032L28.7324 48.1817C29.6219 48.5139 30.5406 48.7617 31.4765 48.9219V50.0958C31.4765 50.5973 31.8817 50.9997 32.3828 51H35.623C36.1245 51 36.5273 50.5973 36.5273 50.0958V48.9141C37.4642 48.7567 38.3843 48.5115 39.2753 48.1817L39.8632 49.2012C40.114 49.6356 40.6652 49.7821 41.0995 49.5313L43.9042 47.9122C44.3385 47.6614 44.4871 47.1102 44.2363 46.6758L43.6562 45.67C44.3881 45.0608 45.0611 44.384 45.666 43.6485L46.6777 44.2325C47.112 44.4832 47.6613 44.3348 47.912 43.9004L49.5331 41.0957C49.7839 40.6614 49.6354 40.1102 49.2011 39.8594L48.1894 39.2754C48.524 38.3836 48.7738 37.4622 48.9355 36.5235H50.0937C50.5952 36.5235 50.9999 36.1168 50.9999 35.6153L50.9979 32.379C50.9979 31.8774 50.5951 31.4727 50.0937 31.4727L48.9257 31.4707C48.7679 30.5324 48.522 29.611 48.1913 28.7188L49.1991 28.1367C49.6334 27.886 49.78 27.3348 49.5292 26.9004L47.9081 24.0938C47.6573 23.6594 47.1061 23.5109 46.6718 23.7617L45.6737 24.3379C45.064 23.6051 44.3866 22.9316 43.6503 22.3262L44.2304 21.3223C44.4811 20.8879 44.3307 20.3367 43.8964 20.0859L41.0917 18.4648C40.6574 18.2141 40.1061 18.3625 39.8554 18.7969L39.2753 19.8008C38.382 19.4679 37.4593 19.22 36.5194 19.0605V17.9043C36.5194 17.4027 36.1166 17 35.6151 17L32.3749 17ZM34.1933 20.6114C37.6759 20.6623 41.0017 22.0684 43.4648 24.5313C45.9757 27.0426 47.3864 30.4486 47.3864 34C47.3864 37.5515 45.9757 40.9575 43.4648 43.4688C40.9537 45.98 37.5481 47.3907 33.997 47.3907C30.4459 47.3907 27.0403 45.98 24.5292 43.4688C22.0183 40.9575 20.6077 37.5515 20.6077 34C20.6077 30.4486 22.0183 27.0426 24.5292 24.5313C25.796 23.2646 27.304 22.265 28.964 21.5917C30.624 20.9184 32.4022 20.585 34.1933 20.6114Z" fill="#5E5E64"/>
<path d="M34.1805 21.4955C32.5076 21.4709 30.8468 21.7822 29.2964 22.4111C27.746 23.04 26.3375 23.9736 25.1544 25.1566C22.8092 27.5022 21.4917 30.6833 21.4917 34.0003C21.4917 37.3173 22.8092 40.4985 25.1544 42.844C27.4997 45.1894 30.6805 46.5071 33.9972 46.5071C37.3138 46.5071 40.4947 45.1894 42.84 42.844C45.1851 40.4985 46.5027 37.3173 46.5027 34.0003C46.5027 30.6833 45.1851 27.5022 42.84 25.1566C40.5395 22.8563 37.4333 21.543 34.1805 21.4955ZM34.0419 31.0305C34.8142 31.0422 35.5517 31.3543 36.0977 31.9007C36.6543 32.4577 36.9669 33.2129 36.9669 34.0003C36.9669 34.7878 36.6543 35.543 36.0977 36.1C35.8219 36.3759 35.4945 36.5948 35.134 36.7441C34.7736 36.8935 34.3873 36.9703 33.9972 36.9703C33.607 36.9703 33.2207 36.8935 32.8603 36.7441C32.4999 36.5948 32.1724 36.3759 31.8966 36.1C31.3401 35.543 31.0275 34.7878 31.0275 34.0003C31.0275 33.2129 31.3401 32.4577 31.8966 31.9007C32.1777 31.6194 32.5125 31.3974 32.881 31.248C33.2495 31.0985 33.6443 31.0246 34.0419 31.0305Z" fill="url(#paint2_radial)"/>
<defs>
<linearGradient id="paint0_linear" x1="65.0667" y1="20.8" x2="3.2" y2="63.4667" gradientUnits="userSpaceOnUse">
<stop stop-color="#27306B"/>
<stop offset="1" stop-color="#2F2F2F"/>
</linearGradient>
<radialGradient id="paint1_radial" cx="0" cy="0" r="1" gradientUnits="userSpaceOnUse" gradientTransform="translate(52.3028 52.2604) scale(6.37999 6.37953)">
<stop stop-color="#27306B"/>
<stop offset="1" stop-color="#2F2F2F"/>
</radialGradient>
<radialGradient id="paint2_radial" cx="0" cy="0" r="1" gradientUnits="userSpaceOnUse" gradientTransform="translate(33.9972 34.0006) scale(12.5055 12.5065)">
<stop stop-color="#27306B"/>
<stop offset="1" stop-color="#2F2F2F"/>
</radialGradient>
</defs>
</svg>
