<svg width="80" height="80" viewBox="0 0 80 80" fill="none" xmlns="http://www.w3.org/2000/svg">
<path d="M77.5 40C77.5 60.7107 60.7107 77.5 40 77.5C19.2893 77.5 2.5 60.7107 2.5 40C2.5 19.2893 19.2893 2.5 40 2.5C60.7107 2.5 77.5 19.2893 77.5 40Z" stroke="url(#paint0_linear)" stroke-width="5"/>
<path d="M42.5265 16.0007C42.1901 16.0077 41.8252 16.0722 41.466 16.151C41.1067 16.2299 40.7564 16.3257 40.4816 16.4049C40.2068 16.4842 39.9528 16.5587 39.9835 16.5514C39.7981 16.5952 39.723 16.6445 39.5538 16.7174C39.3847 16.7904 39.1764 16.8811 38.9542 16.9694C38.5098 17.1461 37.9884 17.3068 37.6906 17.3229C37.4489 17.336 37.2053 17.2425 36.8507 17.1061C36.4962 16.9697 36.0328 16.805 35.4601 16.8542C34.3633 16.9484 32.9697 17.5624 32.2042 18.1608C32.171 18.1868 31.7445 18.3981 31.3351 18.5749C30.9257 18.7517 30.5213 18.9041 30.2042 19.1608C29.87 19.4315 29.6624 19.8196 29.4699 20.278C29.2774 20.7364 29.1339 21.247 29.1339 21.7448V29.5143C29.101 29.5374 29.0345 29.5779 28.9269 29.6276C28.6829 29.7402 28.2712 29.8382 28.0285 30.3014C27.6595 31.0056 27.6824 31.816 27.88 32.5026C28.0829 33.2076 28.6133 33.5764 28.8312 33.8991C29.2965 34.5882 29.7291 35.3207 30.216 36.0436C30.7653 36.8594 31.273 37.7709 32.0031 38.5827C32.4023 39.0266 32.9604 39.4247 33.4308 39.778C33.666 39.9547 33.8772 40.1173 34.0226 40.2467C34.1515 40.3615 34.1839 40.4365 34.173 40.3854V44.3952C34.168 44.4065 34.1553 44.4417 34.1125 44.485C34.0212 44.5774 33.864 44.7049 33.6789 44.8327C33.3087 45.0883 32.8241 45.3544 32.4797 45.5046C31.4969 45.933 30.3597 46.1682 29.1691 46.3288C29.2027 46.3514 29.2339 46.3562 29.2687 46.3893C29.3702 46.4857 29.4792 46.6817 29.4621 46.8835L29.4641 46.8385L29.4661 47.3034C30.6517 47.1364 31.8156 46.8839 32.8782 46.4206C33.298 46.2375 33.8119 45.9575 34.2473 45.6569C34.465 45.5066 34.6605 45.3531 34.8235 45.1882C34.9865 45.0232 35.1731 44.8675 35.1731 44.4987V40.1901L35.1516 40.1217C35.0569 39.7986 34.8802 39.6711 34.6887 39.5007C34.4973 39.3302 34.2697 39.1568 34.0305 38.9772C33.5522 38.618 33.0226 38.221 32.7454 37.9128C32.1132 37.2099 31.6241 36.3462 31.0442 35.485C30.5796 34.7951 30.1474 34.0612 29.6594 33.3385C29.3048 32.8133 28.9175 32.4909 28.8411 32.2253C28.6992 31.7322 28.7082 31.1558 28.9134 30.7643C28.8971 30.7954 29.0662 30.6654 29.347 30.5358C29.4873 30.471 29.6451 30.3982 29.806 30.2624C29.9668 30.1266 30.1341 29.8748 30.1341 29.5924V21.7448C30.1341 21.459 30.2383 21.0304 30.3919 20.6647C30.5454 20.299 30.78 19.9813 30.8333 19.9382C30.9038 19.881 31.3266 19.6678 31.7317 19.4928C32.1368 19.3179 32.5136 19.1907 32.8216 18.9499C33.3335 18.5497 34.8105 17.9134 35.5462 17.8503C35.8897 17.8208 36.1565 17.9109 36.4915 18.0397C36.8264 18.1686 37.2316 18.3507 37.7454 18.3229C38.2867 18.2937 38.8446 18.0883 39.3255 17.8971C39.5659 17.8015 39.7816 17.7074 39.9485 17.6354C40.1154 17.5634 40.2889 17.5064 40.2142 17.5241C40.3557 17.4907 40.4957 17.4419 40.7591 17.3659C41.0224 17.2899 41.355 17.1991 41.681 17.1276C42.0069 17.0561 42.3306 17.0051 42.5462 17.0007C42.6336 16.9989 42.6811 17.0065 42.7142 17.0124C42.8593 17.2814 43.0493 17.6267 43.2981 17.9596C43.5748 18.3299 43.8489 18.7316 44.4212 18.7917C44.7048 18.8214 45.4303 18.8712 46.1399 18.9421C46.4947 18.9775 46.8405 19.0172 47.1028 19.0592C47.234 19.0803 47.3459 19.1016 47.4173 19.1198C47.4474 19.1275 47.4673 19.1388 47.4798 19.1452C47.6248 19.2557 47.963 19.5176 48.2903 19.8268C48.4623 19.9893 48.626 20.1603 48.7415 20.3073C48.8514 20.4472 48.8973 20.5628 48.9017 20.571V29.5924C48.9017 29.8748 49.067 30.1266 49.2278 30.2624C49.3887 30.3982 49.5484 30.471 49.6888 30.5358C49.9695 30.6654 50.1367 30.7954 50.1204 30.7643C50.3255 31.1558 50.3366 31.7322 50.1946 32.2253C50.1181 32.4909 49.7289 32.8133 49.3743 33.3385C48.8863 34.0612 48.4542 34.7951 47.9895 35.485C47.4096 36.3462 46.9205 37.2099 46.2883 37.9128C46.0111 38.221 45.4815 38.618 45.0032 38.9772C44.7641 39.1568 44.5384 39.3302 44.3469 39.5007C44.1555 39.6711 43.9768 39.7986 43.8821 40.1217L43.8626 40.1901V44.4987C43.8626 44.8675 44.0472 45.0232 44.2102 45.1882C44.3733 45.3531 44.5707 45.5066 44.7884 45.6569C45.2238 45.9575 45.7357 46.2375 46.1556 46.4206C47.2188 46.8841 48.3833 47.1364 49.5696 47.3034L49.5716 46.8483C49.5545 46.6466 49.6655 46.4506 49.7669 46.3542C49.7848 46.3371 49.8002 46.337 49.8177 46.3229C48.6452 46.1623 47.5255 45.9273 46.556 45.5046C46.2115 45.3544 45.727 45.0883 45.3568 44.8327C45.1717 44.7049 45.0126 44.5774 44.9212 44.485C44.8794 44.4427 44.8676 44.4095 44.8627 44.3971V40.3854C44.852 40.4362 44.8823 40.3614 45.0111 40.2467C45.1565 40.1173 45.3696 39.9547 45.6048 39.778C46.0752 39.4247 46.6333 39.0266 47.0326 38.5827C47.7626 37.7709 48.2703 36.8594 48.8197 36.0436C49.3065 35.3207 49.7372 34.5882 50.2025 33.8991C50.4204 33.5764 50.9527 33.2076 51.1556 32.5026C51.3532 31.816 51.3761 31.0056 51.0072 30.3014C50.7645 29.8382 50.3508 29.7402 50.1068 29.6276C49.9992 29.578 49.9347 29.5374 49.9017 29.5143V20.4421L49.8917 20.3952C49.8354 20.1029 49.6896 19.8978 49.5265 19.6901C49.3634 19.4825 49.1705 19.2843 48.9757 19.1003C48.586 18.7322 48.1901 18.425 48.0421 18.3132C47.8756 18.1873 47.785 18.1817 47.6651 18.151C47.5453 18.1204 47.412 18.0968 47.2628 18.0729C46.9645 18.0251 46.6044 17.9824 46.2394 17.946C45.5093 17.873 44.7393 17.8181 44.5245 17.7956C44.5984 17.8034 44.3204 17.6566 44.0987 17.36C43.8771 17.0634 43.6624 16.6875 43.5304 16.4382C43.4103 16.2114 43.1977 16.1041 43.0265 16.0553C42.8552 16.0066 42.6947 15.9972 42.5265 16.0007H42.5265ZM24.423 46.7839C22.8903 46.9495 21.4433 47.2212 20.2667 47.9049L20.2647 47.9069H20.2627C19.608 48.297 19.0355 48.7056 18.626 49.2976C18.2165 49.8896 18.003 50.6438 18.003 51.612V59.3015L18.005 59.2703C17.9363 60.3944 18.5889 61.3107 19.5264 61.9461C20.464 62.5815 21.7058 63.0158 23.0616 63.3504C25.7732 64.0194 28.9547 64.2703 30.8565 64.5105H30.8585C34.0567 64.9083 39.5187 64.8797 39.5187 64.8797C39.5237 64.8797 44.9802 64.9081 48.1769 64.5105C50.0787 64.2703 53.2603 64.0194 55.9718 63.3504C57.3276 63.0158 58.5714 62.5815 59.5089 61.9461C60.4465 61.3107 61.0991 60.3944 61.0304 59.2703V51.6121C61.0304 50.6439 60.8169 49.8896 60.4074 49.2976C59.9978 48.7056 59.4273 48.2971 58.7726 47.907H58.7686L58.7666 47.905C57.6008 47.2275 56.1685 46.9559 54.6513 46.7898C54.7319 46.9064 54.79 47.0467 54.79 47.2116V47.8249C56.1469 47.9947 57.3683 48.2493 58.2646 48.7702C58.8699 49.1313 59.3037 49.4613 59.5849 49.8679C59.8671 50.2758 60.0303 50.7833 60.0303 51.612V59.3152L60.0323 59.3308C60.0769 60.0605 59.7154 60.5999 58.9483 61.1198C58.1812 61.6397 57.0284 62.0601 55.7334 62.3796C53.1435 63.0186 50.0036 63.2717 48.0518 63.5183C45.0003 63.8978 39.5186 63.8796 39.5186 63.8796H39.5166H39.5146C39.5146 63.8796 34.0353 63.8975 30.9833 63.5183H30.9813C29.0295 63.2718 25.8909 63.0184 23.3016 62.3796C22.0067 62.0601 20.8539 61.6397 20.0868 61.1198C19.3197 60.5999 18.9582 60.0605 19.0028 59.3308V59.3152V51.612C19.0028 50.7833 19.166 50.2758 19.4481 49.8679C19.7294 49.4613 20.1651 49.1313 20.7704 48.7702C21.6667 48.2493 22.8887 47.9947 24.245 47.8249V47.2468C24.245 47.0576 24.3235 46.909 24.4227 46.7839L24.423 46.7839Z" fill="black"/>
<path d="M39.5166 50.9463C34.5254 50.9463 24.7666 51.4337 24.7666 53.5244V63.1299C29.6541 64.1019 34.5702 64.5082 39.5166 64.3018C44.463 64.5082 49.3792 64.1019 54.2666 63.1299V53.5244C54.2666 51.4337 44.5078 50.9463 39.5166 50.9463Z" fill="url(#paint1_linear)" stroke="black" stroke-linecap="square"/>
<path d="M26.8408 46.0475C26.2849 46.0816 25.7294 46.1557 25.2705 46.2897C25.041 46.3567 24.8342 46.4341 24.6455 46.5631C24.4568 46.6921 24.2451 46.9262 24.2451 47.2467V56.1569C24.2451 56.7654 24.7055 57.2077 25.2002 57.4381C25.6949 57.6685 26.2847 57.7652 26.876 57.7682C27.4672 57.7712 28.0562 57.6803 28.5537 57.4498C29.0513 57.2193 29.5107 56.7659 29.5107 56.1529V56.1509L29.4638 46.8384L29.4618 46.8833C29.4789 46.6816 29.3699 46.4856 29.2685 46.3892C29.167 46.2928 29.0714 46.2482 28.9794 46.2115C28.7954 46.1381 28.6062 46.1024 28.3857 46.0747C27.9447 46.0193 27.3967 46.0133 26.8407 46.0474L26.8408 46.0475ZM24.2451 56.1569V56.1979L24.2511 56.2389L24.2451 56.1569Z" fill="url(#paint2_linear)" stroke="black"/>
<path d="M52.4409 45.5319C52.9969 45.566 53.5523 45.6401 54.0112 45.774C54.2407 45.841 54.4476 45.9185 54.6362 46.0475C54.8249 46.1764 55.0366 46.4105 55.0366 46.7311V55.6412C55.0366 56.2498 54.5763 56.6921 54.0815 56.9225C53.5868 57.1529 52.997 57.2496 52.4058 57.2526C51.8145 57.2556 51.2256 57.1647 50.728 56.9342C50.2305 56.7037 49.771 56.2503 49.771 55.6373V55.6353L49.8179 46.3228L49.8199 46.3677C49.8028 46.166 49.9118 45.97 50.0133 45.8736C50.1147 45.7772 50.2103 45.7326 50.3023 45.6958C50.4864 45.6224 50.6756 45.5868 50.8961 45.5591C51.3371 45.5037 51.885 45.4977 52.441 45.5318L52.4409 45.5319ZM55.0366 55.6412V55.6822L55.0306 55.7232L55.0366 55.6412Z" fill="url(#paint3_linear)" stroke="black"/>
<path d="M26.9443 56.1885C27.4966 56.1885 27.9443 55.7408 27.9443 55.1885C27.9443 54.6362 27.4966 54.1885 26.9443 54.1885C26.3921 54.1885 25.9443 54.6362 25.9443 55.1885C25.9443 55.7408 26.3921 56.1885 26.9443 56.1885Z" fill="#161616"/>
<path d="M52.4038 56.1885C52.9561 56.1885 53.4038 55.7408 53.4038 55.1885C53.4038 54.6362 52.9561 54.1885 52.4038 54.1885C51.8515 54.1885 51.4038 54.6362 51.4038 55.1885C51.4038 55.7408 51.8515 56.1885 52.4038 56.1885Z" fill="#161616"/>
<path d="M31.7363 60.6932C36.7212 58.496 42.4955 58.3057 47.3734 58.3057" stroke="black"/>
<path d="M35.2915 34.8672L35.0688 35.1226C37.3114 36.9986 39.573 37.5082 41.6782 37.5082L42.3593 36.698C40.2998 36.698 37.305 36.5515 35.2915 34.8672Z" fill="black"/>
<path d="M38.7856 27.176H40.2485C39.761 27.1718 39.273 27.1748 38.7856 27.176ZM40.2485 27.176C39.6681 28.0075 39.7204 28.9467 39.734 29.9032C39.734 30.1663 42.0719 33.1486 44.1392 33.1486C46.534 33.1486 47.2388 32.0978 47.2388 30.7463V29.6369C47.2388 28.5037 46.3787 27.1734 44.8599 27.176H40.2485ZM38.7856 27.176H34.1763C32.6574 27.1734 31.7954 28.5037 31.7954 29.6369V30.7463C31.7954 32.0978 32.5002 33.1486 34.895 33.1486C36.9623 33.1486 39.3554 30.1553 39.3554 29.8922C39.369 28.9357 39.3661 28.0075 38.7856 27.176Z" fill="url(#paint4_linear)" stroke="black" stroke-width="0.5" stroke-linecap="square"/>
<defs>
<linearGradient id="paint0_linear" x1="65.0667" y1="20.8" x2="3.2" y2="63.4667" gradientUnits="userSpaceOnUse">
<stop stop-color="#27306B"/>
<stop offset="1" stop-color="#2F2F2F"/>
</linearGradient>
<linearGradient id="paint1_linear" x1="24.2666" y1="57.6501" x2="54.7666" y2="57.6501" gradientUnits="userSpaceOnUse">
<stop stop-color="#27306B"/>
<stop offset="1" stop-color="#2F2F2F"/>
</linearGradient>
<linearGradient id="paint2_linear" x1="24.2451" y1="51.8973" x2="29.5107" y2="51.8973" gradientUnits="userSpaceOnUse">
<stop stop-color="#27306B"/>
<stop offset="1" stop-color="#2F2F2F"/>
</linearGradient>
<linearGradient id="paint3_linear" x1="49.5484" y1="51.4967" x2="55.0366" y2="51.1861" gradientUnits="userSpaceOnUse">
<stop stop-color="#27306B"/>
<stop offset="1" stop-color="#2F2F2F"/>
</linearGradient>
<linearGradient id="paint4_linear" x1="35.7814" y1="34.576" x2="37.9535" y2="25.9484" gradientUnits="userSpaceOnUse">
<stop stop-color="#27306B"/>
<stop offset="1" stop-color="#2F2F2F"/>
</linearGradient>
</defs>
</svg>
