<svg width="349" height="36" viewBox="0 0 349 36" fill="none" xmlns="http://www.w3.org/2000/svg">
<path d="M17.8411 0.0634766L21.8383 12.3639L34.7719 12.3644L24.3087 19.967L28.3049 32.2677L17.8411 24.666L7.37734 32.2677L11.3736 19.967L0.910358 12.3644L13.844 12.3639L17.8411 0.0634766Z" fill="#424242"/>
<path d="M96.1702 0.0625L100.167 12.3629L113.101 12.3634L102.638 19.966L106.634 32.2668L96.1702 24.665L85.7064 32.2668L89.7027 19.966L79.2395 12.3634L92.1731 12.3629L96.1702 0.0625Z" fill="#424242"/>
<path d="M175.687 0.0625L179.684 12.3629L192.618 12.3634L182.154 19.966L186.151 32.2668L175.687 24.665L165.223 32.2668L169.219 19.966L158.756 12.3634L171.69 12.3629L175.687 0.0625Z" fill="#424242"/>
<path d="M252.829 0.0625L256.827 12.3629L269.76 12.3634L259.297 19.966L263.293 32.2668L252.829 24.665L242.366 32.2668L246.362 19.966L235.899 12.3634L248.832 12.3629L252.829 0.0625Z" fill="#424242"/>
<path d="M331.157 0.0625L335.154 12.3629L348.087 12.3634L337.624 19.966L341.62 32.2668L331.157 24.665L320.693 32.2668L324.689 19.966L314.226 12.3634L327.159 12.3629L331.157 0.0625Z" fill="#424242"/>
</svg>
