<svg width="80" height="80" viewBox="0 0 80 80" fill="none" xmlns="http://www.w3.org/2000/svg">
<path d="M77.5 40C77.5 60.7107 60.7107 77.5 40 77.5C19.2893 77.5 2.5 60.7107 2.5 40C2.5 19.2893 19.2893 2.5 40 2.5C60.7107 2.5 77.5 19.2893 77.5 40Z" stroke="url(#paint0_linear)" stroke-width="5"/>
<path d="M39.5 60.0439C39.1022 60.0439 38.7206 60.202 38.4393 60.4833C38.158 60.7646 38 61.1461 38 61.5439C38 61.9418 38.158 62.3233 38.4393 62.6046C38.7206 62.8859 39.1022 63.0439 39.5 63.0439C39.5007 63.0439 39.5013 63.0439 39.502 63.0439V60.0439C39.5013 60.0439 39.5007 60.0439 39.5 60.0439Z" fill="#333333"/>
<path d="M39.6738 16.0006C36.3969 15.9772 33.1486 16.6115 30.1211 17.8659C25.6443 19.7209 21.8182 22.8619 19.1267 26.8916C16.4351 30.9213 14.999 35.6586 15 40.5045H16.957C16.957 40.5032 16.957 40.5019 16.957 40.5006C16.957 40.1028 17.1151 39.7213 17.3964 39.44C17.6777 39.1587 18.0592 39.0006 18.457 39.0006C18.8549 39.0006 19.2364 39.1587 19.5177 39.44C19.799 39.7213 19.957 40.1028 19.957 40.5006C19.957 40.5013 19.957 40.502 19.957 40.5026L37.5 40.4987C37.5 39.9683 37.7107 39.4596 38.0858 39.0845C38.4609 38.7094 38.9696 38.4987 39.5 38.4987C40.0304 38.4987 40.5391 38.7094 40.9142 39.0845C41.2893 39.4596 41.5 39.9683 41.5 40.4987C41.5 41.0292 41.2893 41.5379 40.9142 41.9129C40.5391 42.288 40.0304 42.4987 39.5 42.4987L39.502 60.0437C39.8995 60.0442 40.2805 60.2024 40.5614 60.4837C40.8423 60.7649 41.0001 61.1462 41.0001 61.5437C41.0001 61.9411 40.8423 62.3224 40.5614 62.6036C40.2805 62.8849 39.8995 63.0431 39.502 63.0437V64.9987C44.3479 64.9985 49.0849 63.5611 53.1139 60.8685C57.1428 58.1759 60.2829 54.349 62.1368 49.8718C63.9905 45.3947 64.4751 40.4685 63.5291 35.7161C62.5831 30.9637 60.2492 26.5985 56.8223 23.1726C52.2702 18.6222 46.1102 16.0459 39.6739 16.0007L39.6738 16.0006ZM39.5 17.9577C39.8978 17.9577 40.2794 18.1157 40.5607 18.397C40.842 18.6783 41 19.0598 41 19.4577C41 19.8555 40.842 20.237 40.5607 20.5183C40.2794 20.7996 39.8978 20.9577 39.5 20.9577C39.1022 20.9577 38.7206 20.7996 38.4393 20.5183C38.158 20.237 38 19.8555 38 19.4577C38 19.0598 38.158 18.6783 38.4393 18.397C38.7206 18.1157 39.1022 17.9577 39.5 17.9577ZM50.0566 20.776C50.308 20.7821 50.5538 20.8513 50.7715 20.9772C51.1159 21.1761 51.3672 21.5037 51.4702 21.888C51.5731 22.2722 51.5192 22.6815 51.3203 23.026C51.222 23.1967 51.091 23.3464 50.9348 23.4665C50.7786 23.5865 50.6002 23.6747 50.41 23.7258C50.2197 23.777 50.0213 23.7901 49.8259 23.7645C49.6306 23.739 49.4422 23.6752 49.2715 23.5768C49.1007 23.4783 48.951 23.3471 48.8309 23.1906C48.7109 23.0342 48.6228 22.8557 48.5719 22.6652C48.5209 22.4747 48.508 22.2761 48.5338 22.0806C48.5597 21.8851 48.6239 21.6967 48.7227 21.526C48.8484 21.3084 49.0267 21.1258 49.2414 20.9951C49.4561 20.8644 49.7001 20.7898 49.9512 20.778C49.9863 20.7761 50.0215 20.7754 50.0566 20.776V20.776ZM28.9434 20.778C29.2124 20.7716 29.4782 20.8376 29.7129 20.9693C29.9476 21.1009 30.1425 21.2932 30.2773 21.5261C30.3761 21.6967 30.4403 21.8852 30.4662 22.0806C30.492 22.2761 30.4791 22.4748 30.4281 22.6652C30.3772 22.8557 30.2891 23.0343 30.1691 23.1907C30.049 23.3471 29.8993 23.4783 29.7285 23.5768C29.5578 23.6752 29.3694 23.739 29.1741 23.7646C28.9787 23.7902 28.7803 23.777 28.59 23.7258C28.3998 23.6747 28.2214 23.5866 28.0652 23.4665C27.9091 23.3464 27.778 23.1968 27.6797 23.0261C27.4808 22.6816 27.4269 22.2722 27.5298 21.888C27.6328 21.5038 27.8841 21.1762 28.2285 20.9772C28.4464 20.852 28.6922 20.7835 28.9434 20.778ZM21.3125 28.4792C21.5639 28.4853 21.8097 28.5544 22.0273 28.6804C22.3718 28.8793 22.6231 29.2069 22.726 29.5911C22.8289 29.9753 22.775 30.3847 22.5762 30.7292C22.3772 31.0736 22.0496 31.3249 21.6654 31.4279C21.2812 31.5308 20.8718 31.4769 20.5273 31.278C20.1829 31.0791 19.9316 30.7515 19.8287 30.3672C19.7258 29.983 19.7797 29.5737 19.9785 29.2292C20.1041 29.0118 20.2821 28.8295 20.4964 28.6988C20.7107 28.5681 20.9544 28.4932 21.2051 28.4811C21.2408 28.4792 21.2767 28.4785 21.3125 28.4791V28.4792ZM57.6895 28.4792C57.9587 28.473 58.2246 28.5393 58.4593 28.6713C58.694 28.8032 58.8889 28.9959 59.0234 29.2292C59.2223 29.5737 59.2762 29.983 59.1733 30.3672C59.0704 30.7515 58.819 31.0791 58.4746 31.278C58.1301 31.4769 57.7208 31.5308 57.3365 31.4279C56.9523 31.3249 56.6247 31.0736 56.4258 30.7292C56.2269 30.3847 56.173 29.9753 56.2759 29.5911C56.3789 29.2069 56.6302 28.8793 56.9746 28.6804C57.1923 28.5544 57.4381 28.4853 57.6895 28.4792ZM60.543 39.0007C60.9408 39.0007 61.3223 39.1587 61.6036 39.44C61.8849 39.7213 62.043 40.1028 62.043 40.5007C62.043 40.8985 61.8849 41.28 61.6036 41.5613C61.3223 41.8426 60.9408 42.0007 60.543 42.0007C60.1451 42.0007 59.7636 41.8426 59.4823 41.5613C59.201 41.28 59.043 40.8985 59.043 40.5007C59.043 40.1028 59.201 39.7213 59.4823 39.44C59.7636 39.1587 60.1451 39.0007 60.543 39.0007ZM57.7598 49.5222C58.0111 49.5282 58.257 49.5974 58.4746 49.7233C58.819 49.9223 59.0704 50.2499 59.1733 50.6341C59.2762 51.0183 59.2223 51.4277 59.0234 51.7722C58.8245 52.1166 58.4969 52.3679 58.1127 52.4708C57.7285 52.5737 57.3191 52.5198 56.9746 52.321C56.6302 52.122 56.3789 51.7944 56.2759 51.4102C56.173 51.026 56.2269 50.6166 56.4258 50.2722C56.5515 50.0545 56.7299 49.872 56.9445 49.7413C57.1592 49.6106 57.4033 49.5359 57.6543 49.5241C57.6894 49.5222 57.7246 49.5215 57.7598 49.5221V49.5222ZM49.9863 57.2253C50.2555 57.2191 50.5214 57.2854 50.7562 57.4174C50.9909 57.5493 51.1857 57.742 51.3203 57.9753C51.5192 58.3198 51.5731 58.7291 51.4702 59.1133C51.3672 59.4976 51.1159 59.8252 50.7715 60.0241C50.427 60.223 50.0176 60.2769 49.6334 60.174C49.2492 60.071 48.9216 59.8197 48.7227 59.4753C48.6239 59.3046 48.5597 59.1162 48.5338 58.9207C48.508 58.7252 48.5209 58.5266 48.5719 58.3361C48.6228 58.1456 48.7109 57.9671 48.8309 57.8106C48.951 57.6542 49.1007 57.523 49.2715 57.4245C49.4893 57.2993 49.7351 57.2308 49.9863 57.2253Z" fill="url(#paint1_radial)"/>
<path d="M39.5001 20.958C40.3285 20.958 41 20.2864 41 19.458C41 18.6295 40.3284 17.958 39.5 17.958C38.6716 17.958 38 18.6296 38 19.458C38 20.2864 38.6716 20.958 39.5001 20.958Z" fill="white"/>
<path d="M39.5005 20.958C40.3289 20.958 41.0005 20.2864 41.0005 19.458C41.0005 18.6296 40.3289 17.958 39.5005 17.958C38.6721 17.958 38.0005 18.6296 38.0005 19.458C38.0005 20.2864 38.6721 20.958 39.5005 20.958Z" fill="white"/>
<path d="M29.7293 57.4254C29.0118 57.0111 28.0945 57.257 27.6802 57.9744C27.266 58.6918 27.5118 59.6092 28.2293 60.0234C28.9467 60.4377 29.8641 60.1918 30.2783 59.4744C30.6925 58.757 30.4467 57.8396 29.7293 57.4254Z" fill="#333333"/>
<path d="M22.5756 50.2723C22.1614 49.5548 21.244 49.309 20.5266 49.7232C19.8091 50.1374 19.5633 51.0548 19.9775 51.7723C20.3918 52.4897 21.3091 52.7355 22.0266 52.3213C22.744 51.9071 22.9898 50.9897 22.5756 50.2723Z" fill="#333333"/>
<path d="M16.957 40.5049C16.957 40.9028 17.1151 41.2843 17.3964 41.5656C17.6777 41.8469 18.0592 42.0049 18.457 42.0049C18.8549 42.0049 19.2364 41.8469 19.5177 41.5656C19.799 41.2843 19.957 40.9028 19.957 40.5049C19.957 40.5043 19.957 40.5036 19.957 40.5029H16.957C16.957 40.5036 16.957 40.5043 16.957 40.5049Z" fill="#333333"/>
<path d="M50.9292 35.602L49.4292 33.0039L42.501 37.0039L44.001 39.602L50.9292 35.602Z" fill="white"/>
<path d="M24.1318 30.4652L23.1318 32.1973L35.2562 39.1973L36.2562 37.4652L24.1318 30.4652Z" fill="white"/>
<defs>
<linearGradient id="paint0_linear" x1="65.0667" y1="20.8" x2="3.19999" y2="63.4667" gradientUnits="userSpaceOnUse">
<stop stop-color="#27306B"/>
<stop offset="1" stop-color="#2F2F2F"/>
</linearGradient>
<radialGradient id="paint1_radial" cx="0" cy="0" r="1" gradientUnits="userSpaceOnUse" gradientTransform="translate(39.5001 40.4994) rotate(154.383) scale(15.8755 24.725)">
<stop stop-color="#27306B"/>
<stop offset="1" stop-color="#2F2F2F"/>
</radialGradient>
</defs>
</svg>
