<svg width="80" height="80" viewBox="0 0 80 80" fill="none" xmlns="http://www.w3.org/2000/svg">
<path d="M77.5 40C77.5 60.7107 60.7107 77.5 40 77.5C19.2893 77.5 2.5 60.7107 2.5 40C2.5 19.2893 19.2893 2.5 40 2.5C60.7107 2.5 77.5 19.2893 77.5 40Z" stroke="url(#paint0_linear)" stroke-width="5"/>
<path d="M39.8246 15C32.6245 20.9141 27.8344 23.287 18 25.772C18.4961 43.8892 19.8187 54.1024 39.8246 65.0147C59.8305 54.1024 61.1532 43.8892 61.6492 25.772C51.8148 23.287 47.0247 20.9141 39.8246 15ZM39.8246 16.8205L40.1141 17.0585C43.2869 19.674 45.9605 21.5244 48.9235 23.0048C51.895 24.4896 55.1497 25.5961 59.4806 26.7169L59.8305 26.8074L59.8215 27.1698C59.5911 35.4138 59.1511 41.8516 56.534 47.5078C53.9103 53.1783 49.0737 58.0574 40.0465 63.0734L39.8245 63.196L39.6043 63.0734C30.5772 58.0574 25.7388 53.1783 23.1151 47.5078C20.498 41.8516 20.0598 35.4138 19.8294 27.1698L19.8187 26.8074L20.1704 26.7169C24.5013 25.5961 27.756 24.4896 30.7275 23.0048C33.6904 21.5244 36.364 19.674 39.5369 17.0585L39.8246 16.8205ZM39.8246 17.9785C36.7505 20.4904 34.0765 22.3482 31.1342 23.8183C28.1813 25.2937 24.9288 26.3949 20.7618 27.4895C20.9953 35.5266 21.4578 41.7591 23.941 47.1259C26.4461 52.5402 31.0581 57.23 39.8246 62.141C48.592 57.2297 53.2047 52.5405 55.71 47.1259C58.1932 41.7591 58.6556 35.5266 58.8892 27.4895C54.7221 26.3949 51.4697 25.2937 48.5168 23.8183C45.5741 22.348 42.8992 20.4909 39.8246 17.9785ZM50.3373 31.8107C50.6121 31.8186 50.8781 31.9094 51.1005 32.0711C51.3228 32.2328 51.4911 32.458 51.5833 32.717C51.6754 32.976 51.6872 33.2569 51.617 33.5227C51.5468 33.7885 51.3979 34.0269 51.1898 34.2066C51.1898 34.2066 48.1162 36.9382 44.9841 39.6717C43.4181 41.0384 41.8383 42.4038 40.6114 43.437C39.998 43.9536 39.4753 44.387 39.0733 44.7033C38.8723 44.8615 38.7048 44.9877 38.5494 45.0959C38.4716 45.15 38.3993 45.199 38.2989 45.2557C38.1986 45.3124 38.2474 45.4635 37.5512 45.4635C36.7839 45.4635 36.7463 45.2305 36.6081 45.1278C36.47 45.0252 36.3682 44.9318 36.26 44.8277C36.0437 44.6194 35.8148 44.3717 35.5567 44.0799C35.0405 43.4964 34.4231 42.749 33.8196 42.0019C32.6128 40.5077 31.4699 39.0199 31.4699 39.0199C31.3536 38.8786 31.2669 38.7154 31.215 38.54C31.1631 38.3646 31.147 38.1805 31.1677 37.9987C31.1883 37.8169 31.2454 37.6412 31.3353 37.4819C31.4253 37.3226 31.5464 37.1831 31.6914 37.0715C31.8365 36.96 32.0024 36.8788 32.1795 36.8327C32.3565 36.7866 32.541 36.7766 32.722 36.8033C32.903 36.8299 33.0768 36.8927 33.233 36.9879C33.3892 37.0831 33.5247 37.2088 33.6314 37.3574C33.6314 37.3574 34.7618 38.825 35.9421 40.2862C36.5322 41.0168 37.1367 41.7471 37.6009 42.2719C37.6254 42.2996 37.6358 42.3075 37.6595 42.334C37.9946 42.0648 38.3653 41.7641 38.8549 41.3519C40.0577 40.339 41.6304 38.9763 43.1903 37.615C46.31 34.8923 49.3764 32.1677 49.3764 32.1677C49.6381 31.9283 49.9828 31.8003 50.3373 31.8107V31.8107Z" fill="url(#paint1_linear)"/>
<defs>
<linearGradient id="paint0_linear" x1="65.0667" y1="20.8" x2="3.2" y2="63.4667" gradientUnits="userSpaceOnUse">
<stop stop-color="#27306B"/>
<stop offset="1" stop-color="#2F2F2F"/>
</linearGradient>
<linearGradient id="paint1_linear" x1="62.5592" y1="16.3641" x2="25.7302" y2="52.7384" gradientUnits="userSpaceOnUse">
<stop stop-color="#27306B"/>
<stop offset="1" stop-color="#2F2F2F"/>
</linearGradient>
</defs>
</svg>
