<svg width="18" height="25" viewBox="0 0 18 25" fill="none" xmlns="http://www.w3.org/2000/svg">
<path fill-rule="evenodd" clip-rule="evenodd" d="M3 1H9.5V7C9.5 8.10457 10.3954 9 11.5 9H17V22C17 23.1046 16.1046 24 15 24H3C1.89543 24 1 23.1046 1 22V3C1 1.89543 1.89543 1 3 1ZM18 8.5C17.8598 8.33182 17.7197 8.16521 17.5795 8C15.3584 5.38337 13.1152 3.11671 10.5 0.500088L10 0H3C1.34315 0 0 1.34315 0 3V22C0 23.6569 1.34315 25 3 25H15C16.6569 25 18 23.6569 18 22V8.5ZM10.5 1.91553C12.5986 4.02109 14.4491 5.91512 16.2612 8H11.5C10.9477 8 10.5 7.55228 10.5 7V1.91553ZM14 16C14 18.7614 11.7614 21 9 21C6.23858 21 4 18.7614 4 16C4 13.2386 6.23858 11 9 11C11.7614 11 14 13.2386 14 16ZM15 16C15 19.3137 12.3137 22 9 22C5.68629 22 3 19.3137 3 16C3 12.6863 5.68629 10 9 10C12.3137 10 15 12.6863 15 16ZM9 12.5C9.27614 12.5 9.5 12.7239 9.5 13V15.5H12C12.2761 15.5 12.5 15.7239 12.5 16C12.5 16.2761 12.2761 16.5 12 16.5H9.5V19C9.5 19.2761 9.27614 19.5 9 19.5C8.72386 19.5 8.5 19.2761 8.5 19V16.5H6C5.72386 16.5 5.5 16.2761 5.5 16C5.5 15.7239 5.72386 15.5 6 15.5H8.5V13C8.5 12.7239 8.72386 12.5 9 12.5Z" fill="black"/>
</svg>
