<svg width="50" height="40" viewBox="0 0 50 40" fill="none" xmlns="http://www.w3.org/2000/svg">
<path d="M5.85938 0H44.1406C47.3715 0 50 2.58808 50 5.76923V10.5284L28.497 26.2765C27.4512 27.0424 26.2256 27.4254 25 27.4254C23.7744 27.4254 22.5488 27.0425 21.503 26.2765L0 10.5284V5.76923C0 2.58808 2.62852 0 5.85938 0ZM3.90625 8.59577L23.8343 23.1904C24.5315 23.7011 25.4685 23.7011 26.1656 23.1904L46.0938 8.59577V5.76923C46.0938 4.70885 45.2176 3.84615 44.1406 3.84615H5.85938C4.78242 3.84615 3.90625 4.70885 3.90625 5.76923V8.59577ZM3.90625 18.1826L0 15.3218V34.2308C0 37.4119 2.62852 40 5.85938 40H44.1406C47.3715 40 50 37.4119 50 34.2308V15.3218L46.0938 18.1826V34.2308C46.0938 35.2912 45.2176 36.1538 44.1406 36.1538H5.85938C4.78242 36.1538 3.90625 35.2912 3.90625 34.2308V18.1826Z" fill="white"/>
</svg>
