<svg width="556" height="150" viewBox="0 0 556 150" fill="none" xmlns="http://www.w3.org/2000/svg">
<g clip-path="url(#clip0)">
<path d="M70.3339 142.779C108.475 142.779 139.394 111.86 139.394 73.7191C139.394 35.5782 108.475 4.65881 70.3339 4.65881C32.193 4.65881 1.27368 35.5782 1.27368 73.7191C1.27368 111.86 32.193 142.779 70.3339 142.779Z" stroke="url(#paint0_linear)" stroke-width="2.54709" stroke-linecap="round"/>
<path d="M33.1533 65.0766C25.6847 65.1252 19.27 68.0184 14.326 71.5837C14.2872 72.2951 14.2619 73.0071 14.2502 73.7193C14.2502 81.0844 15.7008 88.3772 18.5193 95.1816C21.3377 101.986 25.4688 108.169 30.6767 113.376C35.8845 118.584 42.0672 122.715 48.8715 125.534C55.6759 128.352 62.9688 129.803 70.3338 129.803C80.0314 129.79 89.5598 127.262 97.9888 122.467C106.418 117.671 113.459 110.772 118.426 102.443C110.228 94.4308 105.715 84.2499 105.693 73.7193C105.708 71.0363 106.015 68.36 106.61 65.7232C105.468 66.912 104.297 68.1699 103.041 69.4415C96.4629 76.1032 87.9365 82.2956 76.7011 80.3368C65.4658 78.3779 51.5223 68.2671 39.6225 65.7429C37.3913 65.2696 35.2315 65.063 33.1532 65.0766H33.1533Z" fill="url(#paint1_linear)"/>
<path d="M70.3336 17.6358C62.9686 17.6358 55.6757 19.0864 48.8713 21.9048C42.0669 24.7233 35.8843 28.8544 30.6764 34.0622C25.4686 39.2701 21.3375 45.4527 18.519 52.2571C15.7006 59.0615 14.25 66.3544 14.25 73.7194C14.25 81.0844 15.7006 88.3773 18.519 95.1817C21.3375 101.986 25.4686 108.169 30.6764 113.376C35.8843 118.584 42.0669 122.715 48.8713 125.534C55.6757 128.352 62.9686 129.803 70.3336 129.803C80.0311 129.79 89.5596 127.262 97.9886 122.467C106.418 117.671 113.459 110.772 118.426 102.443C110.228 94.4309 105.715 84.2499 105.693 73.7194C105.698 63.1766 110.205 52.9796 118.408 44.9545C113.438 36.6356 106.397 29.7464 97.9714 24.9587C89.5462 20.171 80.0241 17.648 70.3336 17.6358V17.6358Z" stroke="url(#paint2_linear)" stroke-width="2.54709" stroke-linecap="round"/>
<path d="M162.945 20.2886C161.838 20.2886 160.981 20.0591 160.374 19.6001C159.78 19.1412 159.368 18.527 159.138 17.7576C158.909 16.9746 158.794 16.1107 158.794 15.1658V8.64592C158.794 7.63352 158.909 6.74261 159.138 5.97318C159.381 5.20376 159.807 4.60305 160.414 4.17109C161.021 3.73913 161.865 3.52316 162.945 3.52316C163.93 3.52316 164.7 3.71213 165.253 4.09009C165.82 4.46805 166.225 5.00801 166.468 5.70995C166.711 6.39838 166.833 7.22182 166.833 8.18023V9.17239H165.375V8.22071C165.375 7.50528 165.314 6.89108 165.193 6.37813C165.085 5.86518 164.855 5.46698 164.504 5.18351C164.153 4.90004 163.64 4.7583 162.965 4.7583C162.223 4.7583 161.663 4.91352 161.285 5.224C160.92 5.52096 160.671 5.94617 160.536 6.49962C160.414 7.05307 160.353 7.69427 160.353 8.4232V15.4088C160.353 16.2187 160.428 16.8937 160.576 17.4336C160.738 17.9736 161.008 18.3785 161.386 18.6485C161.764 18.9185 162.29 19.0534 162.965 19.0534C163.654 19.0534 164.167 18.905 164.504 18.608C164.855 18.311 165.085 17.8993 165.193 17.3729C165.314 16.8329 165.375 16.2052 165.375 15.4898V14.4166H166.833V15.3885C166.833 16.347 166.718 17.1974 166.488 17.9398C166.272 18.6687 165.881 19.2424 165.314 19.6609C164.761 20.0793 163.971 20.2886 162.945 20.2886Z" fill="#27306B"/>
<path d="M169.203 20.0861V3.68512H175.135V4.87977H170.762V11.0352H174.325V12.1691H170.762V18.9319H175.176V20.0861H169.203Z" fill="#27306B"/>
<path d="M177.291 20.0861V3.68512H181.219C182.204 3.68512 182.98 3.86735 183.547 4.23182C184.114 4.59628 184.512 5.10248 184.742 5.75042C184.985 6.39836 185.106 7.16105 185.106 8.03846C185.106 8.80789 184.978 9.52332 184.722 10.1848C184.479 10.8327 184.067 11.3524 183.486 11.7439C182.919 12.1353 182.17 12.3311 181.239 12.3311H178.829V20.0861H177.291ZM178.829 11.1769H180.793C181.455 11.1769 181.988 11.0824 182.393 10.8934C182.812 10.691 183.115 10.3603 183.304 9.9013C183.493 9.44234 183.588 8.82139 183.588 8.03846C183.588 7.20155 183.507 6.55361 183.345 6.09466C183.183 5.6222 182.899 5.29824 182.494 5.12275C182.103 4.93377 181.543 4.83926 180.814 4.83926H178.829V11.1769Z" fill="#27306B"/>
<path d="M187.059 20.0861V3.68512H190.582C191.324 3.68512 191.952 3.7796 192.465 3.96858C192.978 4.15757 193.39 4.43431 193.7 4.79877C194.01 5.16324 194.233 5.60193 194.368 6.11488C194.517 6.61434 194.591 7.16779 194.591 7.77523C194.591 8.30168 194.523 8.81464 194.388 9.31409C194.267 9.80004 194.058 10.2185 193.761 10.5695C193.464 10.907 193.045 11.1297 192.505 11.2377C193.14 11.4132 193.639 11.7169 194.004 12.1488C194.368 12.5673 194.618 13.06 194.753 13.627C194.901 14.1804 194.976 14.7541 194.976 15.348C194.976 15.996 194.915 16.6102 194.793 17.1906C194.685 17.7576 194.483 18.257 194.186 18.689C193.902 19.1209 193.511 19.4651 193.012 19.7216C192.512 19.9646 191.878 20.0861 191.108 20.0861H187.059ZM188.597 18.9319H190.804C191.871 18.9319 192.58 18.6417 192.931 18.0613C193.295 17.4808 193.477 16.5764 193.477 15.348C193.477 14.6866 193.396 14.0994 193.234 13.5864C193.072 13.0735 192.796 12.6753 192.404 12.3918C192.026 12.0948 191.506 11.9463 190.845 11.9463H188.597V18.9319ZM188.597 10.7517H190.825C191.459 10.7517 191.945 10.6302 192.283 10.3873C192.62 10.1308 192.856 9.78656 192.991 9.35461C193.126 8.90915 193.194 8.38267 193.194 7.77523C193.194 7.11379 193.099 6.5671 192.91 6.13514C192.735 5.70318 192.424 5.38598 191.979 5.18349C191.533 4.98101 190.892 4.87977 190.055 4.87977H188.597V10.7517Z" fill="#27306B"/>
<path d="M197.202 20.0861V3.68512H198.579V16.6844L203.884 3.68512H205.079V20.0861H203.702V7.02608L198.417 20.0861H197.202Z" fill="#27306B"/>
<path d="M211.746 20.2886C210.639 20.2886 209.782 20.0591 209.175 19.6001C208.581 19.1412 208.169 18.527 207.939 17.7576C207.71 16.9746 207.595 16.1107 207.595 15.1658V8.64592C207.595 7.63352 207.71 6.74261 207.939 5.97318C208.182 5.20376 208.608 4.60305 209.215 4.17109C209.823 3.73913 210.666 3.52316 211.746 3.52316C212.731 3.52316 213.501 3.71213 214.054 4.09009C214.621 4.46805 215.026 5.00801 215.269 5.70995C215.512 6.39838 215.634 7.22182 215.634 8.18023V9.17239H214.176V8.22071C214.176 7.50528 214.115 6.89108 213.994 6.37813C213.886 5.86518 213.656 5.46698 213.305 5.18351C212.954 4.90004 212.441 4.7583 211.766 4.7583C211.024 4.7583 210.464 4.91352 210.086 5.224C209.721 5.52096 209.472 5.94617 209.337 6.49962C209.215 7.05307 209.154 7.69427 209.154 8.4232V15.4088C209.154 16.2187 209.229 16.8937 209.377 17.4336C209.539 17.9736 209.809 18.3785 210.187 18.6485C210.565 18.9185 211.091 19.0534 211.766 19.0534C212.455 19.0534 212.968 18.905 213.305 18.608C213.656 18.311 213.886 17.8993 213.994 17.3729C214.115 16.8329 214.176 16.2052 214.176 15.4898V14.4166H215.634V15.3885C215.634 16.347 215.519 17.1974 215.289 17.9398C215.074 18.6687 214.682 19.2424 214.115 19.6609C213.562 20.0793 212.772 20.2886 211.746 20.2886Z" fill="#27306B"/>
<path d="M218.004 20.0861V3.68512H219.563V10.9542H224.726V3.68512H226.265V20.0861H224.726V12.1083H219.563V20.0861H218.004Z" fill="#27306B"/>
<path d="M229.116 20.0861V3.68512H230.676V10.5695H232.073C233.139 10.5695 234.017 10.7382 234.705 11.0757C235.407 11.3996 235.927 11.9126 236.264 12.6145C236.601 13.3165 236.77 14.2411 236.77 15.3885C236.77 16.131 236.682 16.7924 236.507 17.3729C236.345 17.9533 236.075 18.446 235.697 18.8509C235.319 19.2559 234.833 19.5664 234.239 19.7824C233.659 19.9848 232.957 20.0861 232.133 20.0861H229.116ZM230.676 18.9117H232.133C232.889 18.9117 233.497 18.797 233.956 18.5675C234.415 18.3245 234.745 17.9398 234.948 17.4133C235.164 16.8869 235.272 16.2052 235.272 15.3683C235.272 14.1804 235.042 13.2827 234.583 12.6753C234.124 12.0543 233.308 11.7439 232.133 11.7439H230.676V18.9117ZM238.734 20.0861V3.68512H240.273V20.0861H238.734Z" fill="#27306B"/>
<path d="M243.116 20.0861V3.68516H244.493V16.6845L249.798 3.68516H250.993V20.0861H249.616V7.02612L244.331 20.0861H243.116ZM247.146 2.42979C246.363 2.42979 245.769 2.22056 245.364 1.8021C244.959 1.37014 244.743 0.769428 244.716 0H245.667C245.681 0.539945 245.816 0.931419 246.072 1.1744C246.342 1.41737 246.7 1.53886 247.146 1.53886C247.605 1.53886 247.962 1.41737 248.219 1.1744C248.489 0.931419 248.637 0.539945 248.664 0H249.596C249.582 0.769428 249.366 1.37014 248.948 1.8021C248.543 2.22056 247.942 2.42979 247.146 2.42979Z" fill="#27306B"/>
<path d="M266.511 22.9006L266.369 20.0861H257.946V3.68512H259.505V18.9319H264.891V3.68512H266.45V18.9319H267.746V22.9006H266.511Z" fill="#27306B"/>
<path d="M269.692 20.0861V3.68512H275.624V4.87977H271.251V11.0352H274.814V12.1691H271.251V18.9319H275.665V20.0861H269.692Z" fill="#27306B"/>
<path d="M277.759 20.0861V3.68512H279.318V10.9542H284.482V3.68512H286.021V20.0861H284.482V12.1083H279.318V20.0861H277.759Z" fill="#27306B"/>
<path d="M290.917 20.0861V4.87977H287.819V3.68512H295.473V4.87977H292.456V20.0861H290.917Z" fill="#27306B"/>
<path d="M297.276 20.0861V3.68512H301.205C302.19 3.68512 302.966 3.86735 303.533 4.23182C304.1 4.59628 304.498 5.10248 304.728 5.75042C304.971 6.39836 305.092 7.16105 305.092 8.03846C305.092 8.80789 304.964 9.52332 304.707 10.1848C304.464 10.8327 304.053 11.3524 303.472 11.7439C302.905 12.1353 302.156 12.3311 301.225 12.3311H298.815V20.0861H297.276ZM298.815 11.1769H300.779C301.441 11.1769 301.974 11.0824 302.379 10.8934C302.797 10.691 303.101 10.3603 303.29 9.9013C303.479 9.44234 303.574 8.82139 303.574 8.03846C303.574 7.20155 303.493 6.55361 303.331 6.09466C303.169 5.6222 302.885 5.29824 302.48 5.12275C302.089 4.93377 301.528 4.83926 300.8 4.83926H298.815V11.1769Z" fill="#27306B"/>
<path d="M158.794 111.375V29.8239H169.165L188.998 76.3381V29.8239H201.281V111.375H191.415L171.48 62.6456V111.375H158.794Z" fill="#27306B"/>
<path d="M235.807 112.482C230.034 112.482 225.437 111.408 222.014 109.26C218.59 107.113 216.141 104.025 214.664 99.998C213.187 95.9708 212.449 91.2053 212.449 85.7014V55.1953C212.449 49.6914 213.187 44.993 214.664 41.1C216.141 37.1399 218.59 34.1196 222.014 32.0389C225.437 29.9581 230.034 28.9177 235.807 28.9177C241.713 28.9177 246.345 29.9581 249.701 32.0389C253.124 34.1196 255.574 37.1399 257.05 41.1C258.594 44.993 259.366 49.6914 259.366 55.1953V85.802C259.366 91.2387 258.594 95.9708 257.05 99.998C255.574 103.958 253.124 107.046 249.701 109.26C246.345 111.408 241.713 112.482 235.807 112.482ZM235.807 101.508C238.29 101.508 240.102 100.971 241.243 99.8973C242.452 98.8233 243.257 97.3467 243.66 95.4674C244.062 93.588 244.264 91.5409 244.264 89.3259V51.7721C244.264 49.4901 244.062 47.4429 243.66 45.6306C243.257 43.8184 242.452 42.4089 241.243 41.4021C240.102 40.3281 238.29 39.7911 235.807 39.7911C233.458 39.7911 231.679 40.3281 230.471 41.4021C229.263 42.4089 228.457 43.8184 228.054 45.6306C227.652 47.4429 227.45 49.4901 227.45 51.7721V89.3259C227.45 91.5409 227.618 93.588 227.954 95.4674C228.356 97.3467 229.162 98.8233 230.37 99.8973C231.578 100.971 233.39 101.508 235.807 101.508H235.807Z" fill="#27306B"/>
<path d="M270.29 111.375V29.8239H280.66L300.494 76.3381V29.8239H312.777V111.375H302.91L282.976 62.6456V111.375H270.29Z" fill="#27306B"/>
<path d="M324.75 83.0836V73.8212H349.014V83.0836H324.75Z" fill="#27306B"/>
<path d="M381.48 112.482C376.58 112.482 372.486 111.543 369.197 109.663C365.908 107.717 363.425 104.898 361.747 101.206C360.069 97.5145 359.129 92.9838 358.928 87.6142L371.714 85.0973C371.848 88.252 372.217 91.0374 372.822 93.4537C373.493 95.87 374.466 97.7495 375.741 99.0919C377.084 100.367 378.829 101.005 380.977 101.005C383.393 101.005 385.105 100.3 386.111 98.8904C387.118 97.4138 387.622 95.5681 387.622 93.3531C387.622 89.7957 386.816 86.8759 385.205 84.5938C383.594 82.3117 381.446 80.0298 378.762 77.7477L368.492 68.6863C365.606 66.2029 363.291 63.4511 361.545 60.4307C359.867 57.3432 359.028 53.5508 359.028 49.0538C359.028 42.6102 360.908 37.6433 364.666 34.1531C368.425 30.6629 373.56 28.9177 380.071 28.9177C383.896 28.9177 387.085 29.5218 389.635 30.73C392.186 31.871 394.199 33.4819 395.676 35.5626C397.22 37.6433 398.361 40.0262 399.099 42.711C399.837 45.3286 400.307 48.114 400.509 51.0673L387.823 53.2823C387.689 50.7318 387.387 48.4498 386.917 46.4362C386.514 44.4226 385.742 42.8451 384.601 41.7041C383.527 40.563 381.916 39.9926 379.769 39.9926C377.554 39.9926 375.842 40.7308 374.634 42.2074C373.493 43.617 372.922 45.3958 372.922 47.5436C372.922 50.2955 373.493 52.5777 374.634 54.3899C375.775 56.135 377.419 57.9472 379.567 59.8266L389.736 68.7871C393.092 71.6061 395.944 74.9285 398.294 78.7544C400.71 82.5131 401.918 87.0774 401.918 92.447C401.918 96.34 401.046 99.7965 399.3 102.817C397.622 105.837 395.24 108.22 392.152 109.965C389.132 111.643 385.574 112.482 381.48 112.482Z" fill="#27306B"/>
<path d="M418.847 111.375V40.798H405.859V29.8239H446.534V40.798H433.747V111.375H418.847Z" fill="#27306B"/>
<path d="M475.709 112.482C469.936 112.482 465.339 111.408 461.916 109.26C458.493 107.113 456.043 104.025 454.566 99.998C453.089 95.9708 452.351 91.2053 452.351 85.7014V55.1953C452.351 49.6914 453.089 44.993 454.566 41.1C456.043 37.1399 458.493 34.1196 461.916 32.0389C465.339 29.9581 469.936 28.9177 475.709 28.9177C481.615 28.9177 486.247 29.9581 489.603 32.0389C493.026 34.1196 495.476 37.1399 496.952 41.1C498.496 44.993 499.268 49.6914 499.268 55.1953V85.802C499.268 91.2387 498.496 95.9708 496.952 99.998C495.476 103.958 493.026 107.046 489.603 109.26C486.247 111.408 481.615 112.482 475.709 112.482ZM475.709 101.508C478.192 101.508 480.005 100.971 481.146 99.8973C482.354 98.8233 483.159 97.3467 483.562 95.4674C483.965 93.588 484.166 91.5409 484.166 89.3259V51.7721C484.166 49.4901 483.965 47.4429 483.562 45.6306C483.159 43.8184 482.354 42.4089 481.146 41.4021C480.005 40.3281 478.192 39.7911 475.709 39.7911C473.36 39.7911 471.581 40.3281 470.373 41.4021C469.165 42.4089 468.359 43.8184 467.957 45.6306C467.554 47.4429 467.352 49.4901 467.352 51.7721V89.3259C467.352 91.5409 467.52 93.588 467.856 95.4674C468.258 97.3467 469.064 98.8233 470.272 99.8973C471.48 100.971 473.292 101.508 475.709 101.508H475.709Z" fill="#27306B"/>
<path d="M510.192 111.375V29.8239H534.154C539.053 29.8239 543.014 30.73 546.034 32.5422C549.122 34.3544 551.37 37.0057 552.78 40.496C554.256 43.9191 554.995 48.0806 554.995 52.9803C554.995 58.2828 554.088 62.5785 552.276 65.8674C550.464 69.0892 547.913 71.4384 544.625 72.9151C541.403 74.3917 537.577 75.1299 533.147 75.1299H525.093V111.375H510.192ZM525.093 64.6593H530.731C533.416 64.6593 535.496 64.29 536.973 63.5517C538.517 62.7462 539.557 61.5046 540.094 59.8266C540.698 58.0815 541 55.7659 541 52.8797C541 49.9264 540.765 47.5436 540.295 45.7314C539.893 43.852 538.953 42.476 537.476 41.6034C536.067 40.7308 533.818 40.2947 530.731 40.2947H525.093V64.6593Z" fill="#27306B"/>
<path d="M171.469 144.072H168.987L160.842 135.144V144.072H158.794V126.458H160.842V134.988L168.782 126.458H171.132L163.336 135.012L171.469 144.072Z" fill="#2F2F2F"/>
<path d="M184.739 137.458C184.739 139.61 184.197 141.293 183.113 142.506C182.028 143.711 180.53 144.313 178.619 144.313C177.438 144.313 176.39 144.036 175.474 143.482C174.559 142.928 173.852 142.132 173.354 141.096C172.856 140.06 172.607 138.847 172.607 137.458C172.607 135.305 173.145 133.63 174.221 132.434C175.297 131.229 176.791 130.626 178.703 130.626C180.551 130.626 182.016 131.241 183.101 132.47C184.193 133.699 184.739 135.361 184.739 137.458ZM174.679 137.458C174.679 139.144 175.016 140.43 175.691 141.313C176.366 142.197 177.358 142.638 178.667 142.638C179.976 142.638 180.968 142.201 181.643 141.325C182.326 140.442 182.667 139.152 182.667 137.458C182.667 135.779 182.326 134.506 181.643 133.638C180.968 132.763 179.968 132.325 178.643 132.325C177.334 132.325 176.346 132.755 175.679 133.614C175.012 134.474 174.679 135.755 174.679 137.458Z" fill="#2F2F2F"/>
<path d="M195.949 132.578H189.997V144.072H187.997V130.867H195.949V132.578Z" fill="#2F2F2F"/>
<path d="M209.786 148.638H207.846V144.072H198.617V148.638H196.689V142.349H197.725C198.802 140.887 199.645 139.173 200.255 137.205C200.866 135.237 201.183 133.124 201.207 130.867H207.894V142.349H209.786V148.638ZM205.966 142.349V132.446H203.002C202.898 134.229 202.553 136.036 201.966 137.867C201.388 139.691 200.665 141.185 199.798 142.349H205.966Z" fill="#2F2F2F"/>
<path d="M220.321 144.072L219.923 142.193H219.827C219.168 143.02 218.51 143.582 217.851 143.879C217.2 144.169 216.385 144.313 215.405 144.313C214.096 144.313 213.068 143.976 212.321 143.301C211.582 142.626 211.212 141.667 211.212 140.422C211.212 137.755 213.345 136.357 217.61 136.229L219.851 136.157V135.337C219.851 134.301 219.626 133.538 219.176 133.048C218.735 132.55 218.024 132.301 217.044 132.301C215.943 132.301 214.698 132.638 213.309 133.313L212.694 131.783C213.345 131.43 214.056 131.152 214.827 130.952C215.606 130.751 216.385 130.65 217.164 130.65C218.739 130.65 219.903 131 220.658 131.699C221.421 132.397 221.803 133.518 221.803 135.06V144.072H220.321ZM215.803 142.663C217.048 142.663 218.024 142.321 218.731 141.639C219.445 140.956 219.803 140 219.803 138.771V137.578L217.803 137.663C216.212 137.719 215.064 137.968 214.357 138.41C213.658 138.843 213.309 139.522 213.309 140.446C213.309 141.169 213.526 141.719 213.959 142.096C214.401 142.474 215.016 142.663 215.803 142.663Z" fill="#2F2F2F"/>
<path d="M242.584 134.181C242.584 135.04 242.335 135.695 241.837 136.145C241.347 136.586 240.657 136.883 239.765 137.036V137.144C240.89 137.297 241.709 137.626 242.223 138.132C242.745 138.638 243.006 139.337 243.006 140.229C243.006 141.458 242.552 142.406 241.645 143.072C240.745 143.739 239.428 144.072 237.693 144.072H231.874V130.867H237.669C240.946 130.867 242.584 131.972 242.584 134.181V134.181ZM241.006 140.096C241.006 139.381 240.733 138.863 240.187 138.542C239.649 138.213 238.753 138.048 237.5 138.048H233.874V142.398H237.548C239.854 142.398 241.006 141.63 241.006 140.096ZM240.633 134.373C240.633 133.731 240.384 133.277 239.886 133.012C239.396 132.739 238.649 132.602 237.645 132.602H233.874V136.325H237.259C238.496 136.325 239.368 136.173 239.874 135.867C240.38 135.562 240.633 135.064 240.633 134.373Z" fill="#2F2F2F"/>
<path d="M250.939 144.313C249.027 144.313 247.545 143.727 246.493 142.554C245.449 141.373 244.927 139.707 244.927 137.554C244.927 135.345 245.457 133.638 246.517 132.434C247.585 131.229 249.103 130.626 251.071 130.626C251.706 130.626 252.34 130.695 252.975 130.831C253.61 130.968 254.108 131.128 254.469 131.313L253.855 133.012C253.413 132.835 252.931 132.691 252.409 132.578C251.887 132.458 251.425 132.397 251.023 132.397C248.34 132.397 246.999 134.108 246.999 137.53C246.999 139.152 247.324 140.398 247.975 141.265C248.634 142.132 249.606 142.566 250.891 142.566C251.991 142.566 253.12 142.329 254.276 141.855V143.626C253.393 144.084 252.28 144.313 250.939 144.313Z" fill="#2F2F2F"/>
<path d="M262.763 144.313C260.812 144.313 259.269 143.719 258.137 142.53C257.012 141.341 256.45 139.691 256.45 137.578C256.45 135.45 256.972 133.759 258.016 132.506C259.069 131.253 260.478 130.626 262.245 130.626C263.9 130.626 265.209 131.173 266.173 132.265C267.137 133.349 267.619 134.783 267.619 136.566V137.831H258.522C258.563 139.381 258.952 140.558 259.691 141.361C260.438 142.165 261.486 142.566 262.836 142.566C264.257 142.566 265.663 142.269 267.053 141.675V143.458C266.346 143.763 265.675 143.98 265.041 144.108C264.414 144.245 263.655 144.313 262.763 144.313ZM262.221 132.301C261.161 132.301 260.314 132.646 259.679 133.337C259.053 134.028 258.683 134.984 258.571 136.205H265.474C265.474 134.944 265.193 133.98 264.631 133.313C264.069 132.638 263.265 132.301 262.221 132.301Z" fill="#2F2F2F"/>
<path d="M283.099 144.313C282.24 144.313 281.452 144.157 280.737 143.843C280.031 143.522 279.436 143.032 278.954 142.373H278.81C278.906 143.144 278.954 143.875 278.954 144.566V150H276.954V130.867H278.581L278.858 132.675H278.954C279.468 131.952 280.067 131.43 280.75 131.108C281.432 130.787 282.215 130.626 283.099 130.626C284.85 130.626 286.199 131.225 287.147 132.422C288.103 133.618 288.581 135.297 288.581 137.458C288.581 139.626 288.095 141.313 287.123 142.518C286.159 143.715 284.818 144.313 283.099 144.313ZM282.81 132.325C281.46 132.325 280.484 132.699 279.882 133.446C279.28 134.193 278.97 135.381 278.954 137.012V137.458C278.954 139.313 279.264 140.642 279.882 141.446C280.501 142.241 281.493 142.638 282.858 142.638C283.999 142.638 284.89 142.177 285.533 141.253C286.183 140.329 286.509 139.056 286.509 137.434C286.509 135.787 286.183 134.526 285.533 133.65C284.89 132.767 283.983 132.325 282.81 132.325Z" fill="#2F2F2F"/>
<path d="M299.972 144.072L299.574 142.193H299.478C298.819 143.02 298.161 143.582 297.502 143.879C296.851 144.169 296.036 144.313 295.056 144.313C293.747 144.313 292.719 143.976 291.972 143.301C291.233 142.626 290.863 141.667 290.863 140.422C290.863 137.755 292.996 136.357 297.261 136.229L299.502 136.157V135.337C299.502 134.301 299.277 133.538 298.827 133.048C298.385 132.55 297.675 132.301 296.695 132.301C295.594 132.301 294.349 132.638 292.96 133.313L292.345 131.783C292.996 131.43 293.707 131.152 294.478 130.952C295.257 130.751 296.036 130.65 296.815 130.65C298.389 130.65 299.554 131 300.309 131.699C301.072 132.397 301.454 133.518 301.454 135.06V144.072H299.972ZM295.454 142.663C296.699 142.663 297.675 142.321 298.381 141.639C299.096 140.956 299.454 140 299.454 138.771V137.578L297.454 137.663C295.863 137.719 294.715 137.968 294.008 138.41C293.309 138.843 292.96 139.522 292.96 140.446C292.96 141.169 293.177 141.719 293.61 142.096C294.052 142.474 294.667 142.663 295.454 142.663Z" fill="#2F2F2F"/>
<path d="M304.664 136.156C304.664 133.265 305.089 131.012 305.941 129.397C306.792 127.775 308.142 126.763 309.989 126.361C312.286 125.871 314.31 125.474 316.061 125.168L316.435 126.928C313.648 127.393 311.656 127.763 310.459 128.036C309.294 128.301 308.419 128.928 307.832 129.915C307.254 130.903 306.937 132.249 306.88 133.952H307.025C307.523 133.277 308.166 132.747 308.953 132.361C309.74 131.976 310.563 131.783 311.423 131.783C313.045 131.783 314.31 132.309 315.218 133.361C316.126 134.414 316.579 135.871 316.579 137.735C316.579 139.799 316.053 141.414 315.001 142.578C313.949 143.735 312.483 144.313 310.603 144.313C308.748 144.313 307.294 143.602 306.242 142.181C305.19 140.759 304.664 138.751 304.664 136.156ZM310.784 142.638C313.234 142.638 314.459 141.076 314.459 137.952C314.459 134.972 313.346 133.482 311.121 133.482C310.511 133.482 309.921 133.61 309.35 133.867C308.788 134.116 308.27 134.45 307.796 134.867C307.33 135.285 306.969 135.715 306.712 136.156C306.712 138.269 307.045 139.879 307.712 140.988C308.378 142.088 309.403 142.638 310.784 142.638Z" fill="#2F2F2F"/>
<path d="M331.211 137.458C331.211 139.61 330.669 141.293 329.584 142.506C328.5 143.711 327.002 144.313 325.09 144.313C323.91 144.313 322.862 144.036 321.946 143.482C321.03 142.928 320.323 142.132 319.825 141.096C319.327 140.06 319.078 138.847 319.078 137.458C319.078 135.305 319.617 133.63 320.693 132.434C321.769 131.229 323.263 130.626 325.175 130.626C327.022 130.626 328.488 131.241 329.572 132.47C330.665 133.699 331.211 135.361 331.211 137.458ZM321.151 137.458C321.151 139.144 321.488 140.43 322.163 141.313C322.837 142.197 323.829 142.638 325.139 142.638C326.448 142.638 327.44 142.201 328.115 141.325C328.797 140.442 329.139 139.152 329.139 137.458C329.139 135.779 328.797 134.506 328.115 133.638C327.44 132.763 326.44 132.325 325.115 132.325C323.805 132.325 322.817 132.755 322.151 133.614C321.484 134.474 321.151 135.755 321.151 137.458Z" fill="#2F2F2F"/>
<path d="M343.373 132.578H339.084V144.072H337.084V132.578H332.843V130.867H343.373V132.578Z" fill="#2F2F2F"/>
<path d="M353.872 144.072L353.474 142.193H353.378C352.719 143.02 352.061 143.582 351.402 143.879C350.751 144.169 349.936 144.313 348.956 144.313C347.647 144.313 346.619 143.976 345.872 143.301C345.133 142.626 344.763 141.667 344.763 140.422C344.763 137.755 346.896 136.357 351.161 136.229L353.402 136.157V135.337C353.402 134.301 353.177 133.538 352.727 133.048C352.286 132.55 351.575 132.301 350.595 132.301C349.494 132.301 348.249 132.638 346.86 133.313L346.245 131.783C346.896 131.43 347.607 131.152 348.378 130.952C349.157 130.751 349.936 130.65 350.715 130.65C352.29 130.65 353.454 131 354.209 131.699C354.972 132.397 355.354 133.518 355.354 135.06V144.072H353.872ZM349.354 142.663C350.599 142.663 351.575 142.321 352.282 141.639C352.996 140.956 353.354 140 353.354 138.771V137.578L351.354 137.663C349.763 137.719 348.615 137.968 347.908 138.41C347.209 138.843 346.86 139.522 346.86 140.446C346.86 141.169 347.077 141.719 347.51 142.096C347.952 142.474 348.567 142.663 349.354 142.663Z" fill="#2F2F2F"/>
<path d="M364.829 144.313C362.877 144.313 361.335 143.719 360.202 142.53C359.078 141.341 358.516 139.691 358.516 137.578C358.516 135.45 359.038 133.759 360.082 132.506C361.134 131.253 362.544 130.626 364.311 130.626C365.965 130.626 367.275 131.173 368.239 132.265C369.202 133.349 369.684 134.783 369.684 136.566V137.831H360.588C360.628 139.381 361.018 140.558 361.757 141.361C362.504 142.165 363.552 142.566 364.901 142.566C366.323 142.566 367.729 142.269 369.118 141.675V143.458C368.411 143.763 367.741 143.98 367.106 144.108C366.48 144.245 365.72 144.313 364.829 144.313ZM364.287 132.301C363.227 132.301 362.379 132.646 361.745 133.337C361.118 134.028 360.749 134.984 360.636 136.205H367.54C367.54 134.944 367.259 133.98 366.696 133.313C366.134 132.638 365.331 132.301 364.287 132.301Z" fill="#2F2F2F"/>
<path d="M381.75 132.578H377.461V144.072H375.461V132.578H371.22V130.867H381.75V132.578Z" fill="#2F2F2F"/>
<path d="M389.615 136.156C389.615 133.265 390.041 131.012 390.893 129.397C391.744 127.775 393.093 126.763 394.941 126.361C397.238 125.871 399.262 125.474 401.013 125.168L401.387 126.928C398.599 127.393 396.608 127.763 395.411 128.036C394.246 128.301 393.371 128.928 392.784 129.915C392.206 130.903 391.889 132.249 391.832 133.952H391.977C392.475 133.277 393.118 132.747 393.905 132.361C394.692 131.976 395.515 131.783 396.375 131.783C397.997 131.783 399.262 132.309 400.17 133.361C401.077 134.414 401.531 135.871 401.531 137.735C401.531 139.799 401.005 141.414 399.953 142.578C398.901 143.735 397.435 144.313 395.555 144.313C393.7 144.313 392.246 143.602 391.194 142.181C390.142 140.759 389.615 138.751 389.615 136.156ZM395.736 142.638C398.186 142.638 399.411 141.076 399.411 137.952C399.411 134.972 398.298 133.482 396.073 133.482C395.463 133.482 394.873 133.61 394.302 133.867C393.74 134.116 393.222 134.45 392.748 134.867C392.282 135.285 391.921 135.715 391.664 136.156C391.664 138.269 391.997 139.879 392.664 140.988C393.33 142.088 394.354 142.638 395.736 142.638Z" fill="#2F2F2F"/>
<path d="M410.344 144.313C408.392 144.313 406.85 143.719 405.717 142.53C404.593 141.341 404.03 139.691 404.03 137.578C404.03 135.45 404.552 133.759 405.597 132.506C406.649 131.253 408.058 130.626 409.825 130.626C411.48 130.626 412.789 131.173 413.753 132.265C414.717 133.349 415.199 134.783 415.199 136.566V137.831H406.103C406.143 139.381 406.532 140.558 407.271 141.361C408.018 142.165 409.066 142.566 410.416 142.566C411.838 142.566 413.243 142.269 414.633 141.675V143.458C413.926 143.763 413.255 143.98 412.621 144.108C411.994 144.245 411.235 144.313 410.344 144.313ZM409.801 132.301C408.741 132.301 407.894 132.646 407.259 133.337C406.633 134.028 406.263 134.984 406.151 136.205H413.054C413.054 134.944 412.773 133.98 412.211 133.313C411.649 132.638 410.846 132.301 409.801 132.301Z" fill="#2F2F2F"/>
<path d="M420.879 136.349C423.377 136.349 424.626 135.658 424.626 134.277C424.626 132.976 423.614 132.325 421.59 132.325C420.971 132.325 420.409 132.381 419.903 132.494C419.397 132.606 418.734 132.831 417.915 133.169L417.204 131.542C418.57 130.932 420.06 130.626 421.674 130.626C423.192 130.626 424.389 130.94 425.264 131.566C426.14 132.185 426.578 133.032 426.578 134.108C426.578 135.586 425.754 136.554 424.108 137.012V137.108C425.12 137.406 425.859 137.831 426.325 138.385C426.791 138.932 427.024 139.618 427.024 140.446C427.024 141.667 426.53 142.618 425.542 143.301C424.562 143.976 423.204 144.313 421.469 144.313C419.566 144.313 418.096 144.028 417.06 143.458V141.626C418.529 142.317 420.015 142.663 421.517 142.663C422.674 142.663 423.546 142.466 424.132 142.072C424.726 141.671 425.023 141.096 425.023 140.349C425.023 138.815 423.775 138.048 421.276 138.048H419.445V136.349H420.879Z" fill="#2F2F2F"/>
<path d="M447.6 137.458C447.6 139.61 447.058 141.293 445.974 142.506C444.889 143.711 443.391 144.313 441.48 144.313C440.299 144.313 439.251 144.036 438.335 143.482C437.419 142.928 436.713 142.132 436.215 141.096C435.717 140.06 435.468 138.847 435.468 137.458C435.468 135.305 436.006 133.63 437.082 132.434C438.158 131.229 439.652 130.626 441.564 130.626C443.411 130.626 444.877 131.241 445.962 132.47C447.054 133.699 447.6 135.361 447.6 137.458ZM437.54 137.458C437.54 139.144 437.877 140.43 438.552 141.313C439.227 142.197 440.219 142.638 441.528 142.638C442.837 142.638 443.829 142.201 444.504 141.325C445.186 140.442 445.528 139.152 445.528 137.458C445.528 135.779 445.186 134.506 444.504 133.638C443.829 132.763 442.829 132.325 441.504 132.325C440.194 132.325 439.207 132.755 438.54 133.614C437.873 134.474 437.54 135.755 437.54 137.458Z" fill="#2F2F2F"/>
<path d="M456.135 144.313C454.224 144.313 452.742 143.727 451.69 142.554C450.645 141.373 450.123 139.707 450.123 137.554C450.123 135.345 450.653 133.638 451.714 132.434C452.782 131.229 454.3 130.626 456.268 130.626C456.902 130.626 457.537 130.695 458.172 130.831C458.806 130.968 459.304 131.128 459.666 131.313L459.051 133.012C458.609 132.835 458.127 132.691 457.605 132.578C457.083 132.458 456.621 132.397 456.22 132.397C453.537 132.397 452.196 134.108 452.196 137.53C452.196 139.152 452.521 140.398 453.172 141.265C453.83 142.132 454.802 142.566 456.087 142.566C457.188 142.566 458.316 142.329 459.473 141.855V143.626C458.589 144.084 457.477 144.313 456.135 144.313Z" fill="#2F2F2F"/>
<path d="M471.285 132.578H466.996V144.072H464.996V132.578H460.755V130.867H471.285V132.578Z" fill="#2F2F2F"/>
<path d="M481.784 144.072L481.387 142.193H481.29C480.632 143.02 479.973 143.582 479.314 143.879C478.664 144.169 477.849 144.313 476.869 144.313C475.559 144.313 474.531 143.976 473.784 143.301C473.045 142.626 472.676 141.667 472.676 140.422C472.676 137.755 474.808 136.357 479.073 136.229L481.314 136.157V135.337C481.314 134.301 481.09 133.538 480.64 133.048C480.198 132.55 479.487 132.301 478.507 132.301C477.407 132.301 476.162 132.638 474.772 133.313L474.158 131.783C474.808 131.43 475.519 131.152 476.29 130.952C477.069 130.751 477.848 130.65 478.628 130.65C480.202 130.65 481.367 131 482.122 131.699C482.885 132.397 483.266 133.518 483.266 135.06V144.072H481.784ZM477.266 142.663C478.511 142.663 479.487 142.321 480.194 141.639C480.909 140.956 481.266 140 481.266 138.771V137.578L479.266 137.663C477.676 137.719 476.527 137.968 475.82 138.41C475.122 138.843 474.772 139.522 474.772 140.446C474.772 141.169 474.989 141.719 475.423 142.096C475.865 142.474 476.479 142.663 477.266 142.663Z" fill="#2F2F2F"/>
<path d="M489.163 130.867V136.397H496.561V130.867H498.561V144.072H496.561V138.12H489.163V144.072H487.163V130.867H489.163Z" fill="#2F2F2F"/>
<path d="M513.988 137.458C513.988 139.61 513.445 141.293 512.361 142.506C511.277 143.711 509.779 144.313 507.867 144.313C506.686 144.313 505.638 144.036 504.722 143.482C503.807 142.928 503.1 142.132 502.602 141.096C502.104 140.06 501.855 138.847 501.855 137.458C501.855 135.305 502.393 133.63 503.469 132.434C504.546 131.229 506.04 130.626 507.951 130.626C509.799 130.626 511.265 131.241 512.349 132.47C513.441 133.699 513.988 135.361 513.988 137.458ZM503.927 137.458C503.927 139.144 504.265 140.43 504.939 141.313C505.614 142.197 506.606 142.638 507.915 142.638C509.225 142.638 510.216 142.201 510.891 141.325C511.574 140.442 511.915 139.152 511.915 137.458C511.915 135.779 511.574 134.506 510.891 133.638C510.216 132.763 509.216 132.325 507.891 132.325C506.582 132.325 505.594 132.755 504.927 133.614C504.261 134.474 503.927 135.755 503.927 137.458Z" fill="#2F2F2F"/>
<path d="M527.957 134.181C527.957 135.04 527.708 135.695 527.21 136.145C526.72 136.586 526.029 136.883 525.137 137.036V137.144C526.262 137.297 527.081 137.626 527.595 138.132C528.117 138.638 528.378 139.337 528.378 140.229C528.378 141.458 527.924 142.406 527.017 143.072C526.117 143.739 524.8 144.072 523.065 144.072H517.246V130.867H523.041C526.318 130.867 527.957 131.972 527.957 134.181V134.181ZM526.378 140.096C526.378 139.381 526.105 138.863 525.559 138.542C525.021 138.213 524.125 138.048 522.872 138.048H519.246V142.398H522.92C525.226 142.398 526.378 141.63 526.378 140.096ZM526.005 134.373C526.005 133.731 525.756 133.277 525.258 133.012C524.768 132.739 524.021 132.602 523.017 132.602H519.246V136.325H522.631C523.868 136.325 524.74 136.173 525.246 135.867C525.752 135.562 526.005 135.064 526.005 134.373Z" fill="#2F2F2F"/>
<path d="M538.733 130.867H540.926L535.227 137.241L541.396 144.072H539.058L533.034 137.385V144.072H531.034V130.867H533.034V137.289L538.733 130.867Z" fill="#2F2F2F"/>
<path d="M545.497 130.867V139.241L545.413 141.434L545.377 142.12L552.521 130.867H555.015V144.072H553.148V136L553.184 134.409L553.244 132.843L546.111 144.072H543.617V130.867H545.497Z" fill="#2F2F2F"/>
</g>
<defs>
<linearGradient id="paint0_linear" x1="2.10608" y1="135.395" x2="120.034" y2="16.3623" gradientUnits="userSpaceOnUse">
<stop stop-color="#2F2F2F"/>
<stop offset="1" stop-color="#27306B"/>
</linearGradient>
<linearGradient id="paint1_linear" x1="38.1458" y1="113.774" x2="113.107" y2="72.4684" gradientUnits="userSpaceOnUse">
<stop stop-color="#2F2F2F"/>
<stop offset="1" stop-color="#27306B"/>
</linearGradient>
<linearGradient id="paint2_linear" x1="31.6295" y1="114.034" x2="120.034" y2="73.7194" gradientUnits="userSpaceOnUse">
<stop stop-color="#2F2F2F"/>
<stop offset="1" stop-color="#27306B"/>
</linearGradient>
<clipPath id="clip0">
<rect width="555.015" height="150" fill="white"/>
</clipPath>
</defs>
</svg>
