<svg width="32" height="32" viewBox="0 0 32 32" fill="none" xmlns="http://www.w3.org/2000/svg">
<g clip-path="url(#clip0)">
<path d="M20.3017 21.0274L16.311 25.0181C15.4717 25.8574 12.814 24.5655 10.3784 22.13C7.95108 19.7026 6.65925 17.0449 7.49853 16.2056L11.4892 12.215L4.85727 5.58301L1.54952 8.89076C-0.886039 11.3263 2.07612 18.2463 8.17324 24.3351C14.2704 30.4323 21.1821 33.3944 23.6176 30.9506L26.9254 27.6429L20.3017 21.0274Z" fill="white"/>
<path d="M16.1211 0.950195V4.03578C22.9258 4.03578 28.4634 9.57339 28.4634 16.3781H31.549C31.5491 7.85368 24.6374 0.950195 16.1211 0.950195Z" fill="white"/>
<path d="M16.1211 7.12109V10.2067C19.5276 10.2067 22.2923 12.9714 22.2923 16.3779H25.3779C25.3779 11.2764 21.2226 7.12109 16.1211 7.12109Z" fill="white"/>
</g>
<defs>
<clipPath id="clip0">
<rect width="30.8569" height="30.8569" fill="white" transform="translate(0.695312 0.950195)"/>
</clipPath>
</defs>
</svg>
