<svg width="40" height="40" viewBox="0 0 40 40" fill="none" xmlns="http://www.w3.org/2000/svg">
<g clip-path="url(#clip0)">
<path d="M25.4162 26.0258L20.243 31.1989C19.1551 32.2869 15.7099 30.6123 12.5526 27.455C9.40609 24.3085 7.73148 20.8633 8.81944 19.7753L13.9926 14.6022L5.39556 6.00513L1.10771 10.293C-2.04952 13.4502 1.79035 22.4205 9.69408 30.3136C17.5978 38.2173 26.5575 42.0572 29.7147 38.8893L34.0026 34.6014L25.4162 26.0258Z" fill="#E8E8E8"/>
<path d="M19.9978 0V3.99986C28.8188 3.99986 35.9972 11.1783 35.9972 19.9993H39.9971C39.9972 8.94902 31.0375 0 19.9978 0Z" fill="#E8E8E8"/>
<path d="M19.9978 7.99976V11.9996C24.4137 11.9996 27.9975 15.5835 27.9975 19.9993H31.9974C31.9975 13.3862 26.6109 7.99976 19.9978 7.99976Z" fill="#E8E8E8"/>
</g>
<defs>
<clipPath id="clip0">
<rect width="40" height="40" fill="white"/>
</clipPath>
</defs>
</svg>
