<svg width="34" height="32" viewBox="0 0 34 32" fill="none" xmlns="http://www.w3.org/2000/svg">
<rect x="0.5" y="7.5" width="24" height="24" rx="9.5" stroke="#27306B"/>
<path d="M11.5 23.5L11.9298 23.7555L11.9301 23.755L11.9315 23.7527L11.9371 23.7432L11.9603 23.7045C11.981 23.6701 12.0121 23.6186 12.0533 23.5511C12.1356 23.4159 12.2581 23.2164 12.4181 22.9603C12.7383 22.4481 13.2084 21.7098 13.8072 20.8078C15.005 19.0033 16.7159 16.5458 18.7682 13.9339C22.0203 9.79481 26.0911 5.31853 30.3071 2.41266C23.8023 8.99754 19.2132 15.403 16.1504 20.3088C14.4039 23.1061 13.1538 25.4157 12.3284 26.9915C12.1381 27.3547 11.9725 27.6749 11.8288 27.9527C11.7372 28.1299 11.6545 28.2898 11.58 28.4325C10.6024 26.4249 8.73375 23.8377 6.95201 21.624C6.29215 20.8042 5.63812 20.0282 5.03608 19.3423C5.93615 19.9403 6.85514 20.5924 7.70413 21.2156C8.67827 21.9306 9.54918 22.5994 10.1766 23.0894C10.4902 23.3343 10.7428 23.5344 10.9168 23.6732C11.0038 23.7425 11.0711 23.7965 11.1165 23.8331L11.168 23.8746L11.181 23.885L11.1842 23.8876L11.1849 23.8882L11.1851 23.8884L11.5 23.5ZM11.5 23.5L11.1851 23.8884L11.6342 24.2526L11.9298 23.7555L11.5 23.5Z" fill="#27306B" stroke="#27306B"/>
</svg>
