<svg width="53" height="52" viewBox="0 0 53 52" fill="none" xmlns="http://www.w3.org/2000/svg">
<g clip-path="url(#clip0)">
<path d="M33.1942 13.0206H19.8057C18.9477 13.0202 18.098 13.1856 17.3052 13.5075C16.5124 13.8294 15.792 14.3014 15.1851 14.8965C14.5783 15.4916 14.0969 16.1982 13.7685 16.9759C13.44 17.7536 13.271 18.5872 13.271 19.429V32.5649C13.2706 33.4069 13.4394 34.2408 13.7676 35.0189C14.0959 35.7969 14.5772 36.5038 15.1841 37.0993C15.7909 37.6947 16.5115 38.1669 17.3045 38.489C18.0975 38.8111 18.9474 38.9766 19.8057 38.9762H33.1942C34.0524 38.9766 34.9024 38.8111 35.6954 38.489C36.4884 38.1669 37.2089 37.6947 37.8158 37.0993C38.4226 36.5038 38.904 35.7969 39.2322 35.0189C39.5605 34.2408 39.7292 33.4069 39.7288 32.5649V19.429C39.7288 18.5872 39.5598 17.7536 39.2314 16.9759C38.9029 16.1982 38.4215 15.4916 37.8147 14.8965C37.2079 14.3014 36.4875 13.8294 35.6947 13.5075C34.9019 13.1856 34.0522 13.0202 33.1942 13.0206ZM26.4999 34.4056C24.8055 34.4056 23.1491 33.9126 21.7402 32.9889C20.3313 32.0653 19.2332 30.7525 18.5847 29.2166C17.9363 27.6807 17.7666 25.9906 18.0972 24.36C18.4278 22.7295 19.2437 21.2317 20.4419 20.0562C21.6401 18.8806 23.1666 18.08 24.8285 17.7557C26.4904 17.4314 28.213 17.5978 29.7785 18.234C31.344 18.8702 32.682 19.9476 33.6234 21.3299C34.5648 22.7122 35.0673 24.3374 35.0673 25.9999C35.0641 28.2282 34.1604 30.3644 32.5544 31.9401C30.9484 33.5158 28.7711 34.4024 26.4999 34.4056ZM35.1154 19.6683C34.6985 19.6683 34.291 19.547 33.9443 19.3197C33.5977 19.0925 33.3275 18.7695 33.1679 18.3916C33.0084 18.0137 32.9666 17.5978 33.048 17.1966C33.1293 16.7954 33.3301 16.4269 33.6249 16.1377C33.9197 15.8484 34.2953 15.6515 34.7042 15.5717C35.1131 15.4919 35.5369 15.5328 35.9221 15.6894C36.3073 15.8459 36.6365 16.111 36.8681 16.4511C37.0998 16.7912 37.2234 17.1911 37.2234 17.6001C37.2234 18.1486 37.0013 18.6747 36.606 19.0625C36.2107 19.4504 35.6745 19.6683 35.1154 19.6683ZM26.4999 20.8619C25.4642 20.8619 24.4517 21.1633 23.5905 21.7278C22.7293 22.2924 22.0581 23.0948 21.6618 24.0337C21.2654 24.9725 21.1617 26.0056 21.3638 27.0022C21.5658 27.9989 22.0646 28.9144 22.797 29.633C23.5293 30.3515 24.4624 30.8409 25.4783 31.0391C26.4941 31.2374 27.5471 31.1356 28.5039 30.7467C29.4608 30.3579 30.2787 29.6993 30.8541 28.8544C31.4296 28.0094 31.7367 27.0161 31.7367 25.9999C31.7367 24.6372 31.185 23.3304 30.2029 22.3668C29.2208 21.4032 27.8888 20.8619 26.4999 20.8619ZM33.1942 13.0206H19.8057C18.9477 13.0202 18.098 13.1856 17.3052 13.5075C16.5124 13.8294 15.792 14.3014 15.1851 14.8965C14.5783 15.4916 14.0969 16.1982 13.7685 16.9759C13.44 17.7536 13.271 18.5872 13.271 19.429V32.5649C13.2706 33.4069 13.4394 34.2408 13.7676 35.0189C14.0959 35.7969 14.5772 36.5038 15.1841 37.0993C15.7909 37.6947 16.5115 38.1669 17.3045 38.489C18.0975 38.8111 18.9474 38.9766 19.8057 38.9762H33.1942C34.0524 38.9766 34.9024 38.8111 35.6954 38.489C36.4884 38.1669 37.2089 37.6947 37.8158 37.0993C38.4226 36.5038 38.904 35.7969 39.2322 35.0189C39.5605 34.2408 39.7292 33.4069 39.7288 32.5649V19.429C39.7288 18.5872 39.5598 17.7536 39.2314 16.9759C38.9029 16.1982 38.4215 15.4916 37.8147 14.8965C37.2079 14.3014 36.4875 13.8294 35.6947 13.5075C34.9019 13.1856 34.0522 13.0202 33.1942 13.0206ZM26.4999 34.4056C24.8055 34.4056 23.1491 33.9126 21.7402 32.9889C20.3313 32.0653 19.2332 30.7525 18.5847 29.2166C17.9363 27.6807 17.7666 25.9906 18.0972 24.36C18.4278 22.7295 19.2437 21.2317 20.4419 20.0562C21.6401 18.8806 23.1666 18.08 24.8285 17.7557C26.4904 17.4314 28.213 17.5978 29.7785 18.234C31.344 18.8702 32.682 19.9476 33.6234 21.3299C34.5648 22.7122 35.0673 24.3374 35.0673 25.9999C35.0641 28.2282 34.1604 30.3644 32.5544 31.9401C30.9484 33.5158 28.7711 34.4024 26.4999 34.4056ZM35.1154 19.6683C34.6985 19.6683 34.291 19.547 33.9443 19.3197C33.5977 19.0925 33.3275 18.7695 33.1679 18.3916C33.0084 18.0137 32.9666 17.5978 33.048 17.1966C33.1293 16.7954 33.3301 16.4269 33.6249 16.1377C33.9197 15.8484 34.2953 15.6515 34.7042 15.5717C35.1131 15.4919 35.5369 15.5328 35.9221 15.6894C36.3073 15.8459 36.6365 16.111 36.8681 16.4511C37.0998 16.7912 37.2234 17.1911 37.2234 17.6001C37.2234 18.1486 37.0013 18.6747 36.606 19.0625C36.2107 19.4504 35.6745 19.6683 35.1154 19.6683ZM26.4999 20.8619C25.4642 20.8619 24.4517 21.1633 23.5905 21.7278C22.7293 22.2924 22.0581 23.0948 21.6618 24.0337C21.2654 24.9725 21.1617 26.0056 21.3638 27.0022C21.5658 27.9989 22.0646 28.9144 22.797 29.633C23.5293 30.3515 24.4624 30.8409 25.4783 31.0391C26.4941 31.2374 27.5471 31.1356 28.5039 30.7467C29.4608 30.3579 30.2787 29.6993 30.8541 28.8544C31.4296 28.0094 31.7367 27.0161 31.7367 25.9999C31.7367 24.6372 31.185 23.3304 30.2029 22.3668C29.2208 21.4032 27.8888 20.8619 26.4999 20.8619ZM52.0965 9.29784C51.8619 7.1453 50.8828 5.13656 49.3223 3.60607C47.7619 2.07559 45.7142 1.11571 43.5202 0.886247C32.2094 -0.297694 20.8024 -0.297694 9.49173 0.886247C7.29555 1.11317 5.24504 2.07193 3.68215 3.60264C2.11926 5.13336 1.13846 7.1435 0.903324 9.29784C-0.303387 20.3951 -0.303387 31.5869 0.903324 42.6842C1.13408 44.8399 2.11143 46.8528 3.67225 48.3868C5.23306 49.9209 7.28292 50.8833 9.47969 51.1135C20.7901 52.3033 32.1977 52.3033 43.5081 51.1135C45.7052 50.8863 47.7564 49.9267 49.3194 48.3948C50.8824 46.8629 51.8627 44.8514 52.0965 42.696C53.3041 31.5948 53.3041 20.399 52.0965 9.29784ZM43.0624 32.5649C43.0608 35.1325 42.0207 37.5946 40.1705 39.4104C38.3203 41.2263 35.8112 42.2475 33.1942 42.2499H19.8057C17.1889 42.2467 14.6803 41.2253 12.8302 39.4096C10.9802 37.5939 9.93981 35.1323 9.93742 32.5649V19.429C9.94061 16.8624 10.9814 14.4018 12.8315 12.5872C14.6815 10.7726 17.1897 9.75223 19.8057 9.74988H33.1942C35.8102 9.75223 38.3183 10.7726 40.1684 12.5872C42.0184 14.4018 43.0592 16.8624 43.0624 19.429V32.5649ZM33.1942 13.0206H19.8057C18.9477 13.0202 18.098 13.1856 17.3052 13.5075C16.5124 13.8294 15.792 14.3014 15.1851 14.8965C14.5783 15.4916 14.0969 16.1982 13.7685 16.9759C13.44 17.7536 13.271 18.5872 13.271 19.429V32.5649C13.2706 33.4069 13.4394 34.2408 13.7676 35.0189C14.0959 35.7969 14.5772 36.5038 15.1841 37.0993C15.7909 37.6947 16.5115 38.1669 17.3045 38.489C18.0975 38.8111 18.9474 38.9766 19.8057 38.9762H33.1942C34.0524 38.9766 34.9024 38.8111 35.6954 38.489C36.4884 38.1669 37.2089 37.6947 37.8158 37.0993C38.4226 36.5038 38.904 35.7969 39.2322 35.0189C39.5605 34.2408 39.7292 33.4069 39.7288 32.5649V19.429C39.7288 18.5872 39.5598 17.7536 39.2314 16.9759C38.9029 16.1982 38.4215 15.4916 37.8147 14.8965C37.2079 14.3014 36.4875 13.8294 35.6947 13.5075C34.9019 13.1856 34.0522 13.0202 33.1942 13.0206ZM26.4999 34.4056C24.8055 34.4056 23.1491 33.9126 21.7402 32.9889C20.3313 32.0653 19.2332 30.7525 18.5847 29.2166C17.9363 27.6807 17.7666 25.9906 18.0972 24.36C18.4278 22.7295 19.2437 21.2317 20.4419 20.0562C21.6401 18.8806 23.1666 18.08 24.8285 17.7557C26.4904 17.4314 28.213 17.5978 29.7785 18.234C31.344 18.8702 32.682 19.9476 33.6234 21.3299C34.5648 22.7122 35.0673 24.3374 35.0673 25.9999C35.0641 28.2282 34.1604 30.3644 32.5544 31.9401C30.9484 33.5158 28.7711 34.4024 26.4999 34.4056ZM35.1154 19.6683C34.6985 19.6683 34.291 19.547 33.9443 19.3197C33.5977 19.0925 33.3275 18.7695 33.1679 18.3916C33.0084 18.0137 32.9666 17.5978 33.048 17.1966C33.1293 16.7954 33.3301 16.4269 33.6249 16.1377C33.9197 15.8484 34.2953 15.6515 34.7042 15.5717C35.1131 15.4919 35.5369 15.5328 35.9221 15.6894C36.3073 15.8459 36.6365 16.111 36.8681 16.4511C37.0998 16.7912 37.2234 17.1911 37.2234 17.6001C37.2234 18.1486 37.0013 18.6747 36.606 19.0625C36.2107 19.4504 35.6745 19.6683 35.1154 19.6683ZM26.4999 20.8619C25.4642 20.8619 24.4517 21.1633 23.5905 21.7278C22.7293 22.2924 22.0581 23.0948 21.6618 24.0337C21.2654 24.9725 21.1617 26.0056 21.3638 27.0022C21.5658 27.9989 22.0646 28.9144 22.797 29.633C23.5293 30.3515 24.4624 30.8409 25.4783 31.0391C26.4941 31.2374 27.5471 31.1356 28.5039 30.7467C29.4608 30.3579 30.2787 29.6993 30.8541 28.8544C31.4296 28.0094 31.7367 27.0161 31.7367 25.9999C31.7367 24.6372 31.185 23.3304 30.2029 22.3668C29.2208 21.4032 27.8888 20.8619 26.4999 20.8619Z" fill="white"/>
</g>
<defs>
<clipPath id="clip0">
<rect width="53" height="52" fill="white"/>
</clipPath>
</defs>
</svg>
