<svg width="52" height="52" viewBox="0 0 52 52" fill="none" xmlns="http://www.w3.org/2000/svg">
<path d="M22.1118 19.7676L32.2511 25.9978L22.1118 32.2221V19.7676Z" fill="white"/>
<path d="M51.1115 9.2982C50.8813 7.14597 49.9208 5.13752 48.3898 3.60726C46.8589 2.077 44.85 1.11725 42.6976 0.887827C31.6011 -0.295942 20.4101 -0.295942 9.31364 0.887827C7.15905 1.11472 5.14738 2.07334 3.61409 3.60383C2.0808 5.13432 1.11858 7.14417 0.887891 9.2982C-0.295964 20.3939 -0.295964 31.584 0.887891 42.6797C1.11428 44.8351 2.07312 46.8477 3.60437 48.3815C5.13562 49.9154 7.14665 50.8777 9.30182 51.1078C20.398 52.2974 31.5896 52.2974 42.6857 51.1078C44.8412 50.8807 46.8536 49.9212 48.387 48.3895C49.9204 46.8578 50.8821 44.8466 51.1115 42.6915C52.2962 31.5919 52.2962 20.3978 51.1115 9.2982ZM41.4922 33.8174C40.8422 35.8143 38.6915 37.0285 36.7121 37.3062C29.5925 38.0624 22.4128 38.0624 15.2932 37.3062C13.3138 37.0285 11.1571 35.8291 10.5131 33.8174C9.49978 28.6546 9.49978 23.344 10.5131 18.1812C11.163 16.1813 13.3138 14.9701 15.2932 14.6924C22.4128 13.9362 29.5925 13.9362 36.7121 14.6924C38.6915 14.9701 40.8481 16.1695 41.4922 18.1812C42.5041 23.3433 42.5031 28.6528 41.4892 33.8144L41.4922 33.8174Z" fill="white"/>
</svg>
