<svg width="52" height="52" viewBox="0 0 52 52" fill="none" xmlns="http://www.w3.org/2000/svg">
<g clip-path="url(#clip0)">
<path d="M51.1144 9.29964C50.8873 7.1459 49.9278 5.13539 48.3961 3.60429C46.8645 2.0732 44.8537 1.11434 42.6998 0.888048C31.6028 -0.301713 20.4105 -0.301713 9.31347 0.888048C7.15753 1.11179 5.14393 2.06953 3.60992 3.60085C2.07591 5.13217 1.11464 7.14409 0.887112 9.29964C-0.297657 20.4018 -0.297657 31.5986 0.887112 42.7008C1.11669 44.8538 2.077 46.8633 3.60808 48.3943C5.13916 49.9254 7.14859 50.8857 9.30166 51.1153C20.3986 52.3051 31.591 52.3051 42.688 51.1153C44.8432 50.8883 46.8554 49.9291 48.3888 48.3978C49.9223 46.8665 50.8843 44.8556 51.1144 42.7008C52.2991 31.5986 52.2991 20.4018 51.1144 9.29964ZM40.6937 35.2996C39.9373 35.406 36.2382 35.2996 36.0462 35.2996C35.0876 35.3106 34.1636 34.9421 33.4757 34.2744C32.6957 33.521 31.9985 32.6937 31.2362 31.9108C31.0116 31.6705 30.7675 31.4491 30.5064 31.249C29.8978 30.7821 29.2951 30.8885 29.0085 31.6065C28.7846 32.3823 28.6284 33.1761 28.5417 33.979C28.4914 34.7028 28.0305 35.1608 27.2151 35.208C26.7098 35.2376 26.2046 35.2465 25.7053 35.2346C23.8853 35.2221 22.0942 34.7786 20.4787 33.9405C18.7305 32.9674 17.2073 31.6365 16.0085 30.0346C14.0378 27.5174 12.463 24.7519 11.0567 21.9008C10.9828 21.756 9.54097 18.6921 9.50552 18.5444C9.37552 18.0628 9.50552 17.599 9.90438 17.4365C10.1585 17.339 14.9094 17.4365 14.9892 17.4365C15.3425 17.4345 15.6874 17.5447 15.9741 17.7513C16.2608 17.9578 16.4745 18.25 16.5846 18.5858C17.4629 20.8345 18.6653 22.9428 20.1537 24.8435C20.3621 25.0967 20.6059 25.3186 20.8776 25.5024C21.2646 25.7683 21.631 25.6767 21.7905 25.2276C21.9798 24.6086 22.091 23.9684 22.1214 23.3219C22.148 22.0396 22.1214 21.1976 22.0505 19.9153C22.0032 19.094 21.7137 18.376 20.5023 18.1426C20.1301 18.0746 20.0976 17.7674 20.3369 17.4601C20.8362 16.8249 21.5187 16.7215 22.2839 16.686C23.4244 16.618 24.5648 16.6624 25.7053 16.686H25.9535C26.4498 16.6818 26.9451 16.7313 27.4307 16.8337C27.7177 16.8933 27.978 17.0434 28.1732 17.262C28.3684 17.4806 28.4883 17.7562 28.5151 18.048C28.5737 18.3716 28.5985 18.7003 28.5889 19.029C28.5594 20.4265 28.4914 21.8269 28.4767 23.2244C28.4629 23.7789 28.5135 24.3331 28.6273 24.876C28.7898 25.6235 29.301 25.8067 29.8092 25.269C30.4677 24.5764 31.0713 23.8335 31.6144 23.0471C32.5763 21.6107 33.3695 20.068 33.978 18.4499C34.3089 17.6196 34.5689 17.4365 35.4553 17.4365H40.4957C40.7955 17.4312 41.0942 17.471 41.3821 17.5546C41.484 17.5814 41.5793 17.6289 41.6619 17.6942C41.7446 17.7595 41.8129 17.8412 41.8625 17.9341C41.9122 18.027 41.9421 18.1292 41.9505 18.2342C41.9588 18.3392 41.9453 18.4448 41.911 18.5444C41.6628 19.6524 41.066 20.5919 40.4337 21.499C39.4085 22.9496 38.3271 24.3649 37.2782 25.7978C37.1449 25.987 37.0235 26.1844 36.9148 26.3887C36.5189 27.1008 36.5485 27.4996 37.1217 28.0905C38.0376 29.033 39.0155 29.9135 39.8989 30.8826C40.5469 31.5877 41.1321 32.3479 41.648 33.1546C42.2951 34.1592 41.8962 35.1165 40.6907 35.2878L40.6937 35.2996Z" fill="#303030"/>
</g>
<defs>
<clipPath id="clip0">
<rect width="52" height="52" fill="white"/>
</clipPath>
</defs>
</svg>
