<svg width="53" height="52" viewBox="0 0 53 52" fill="none" xmlns="http://www.w3.org/2000/svg">
<path d="M48.0824 0H4.91756C3.61334 0 2.36254 0.508323 1.44032 1.41314C0.518098 2.31796 0 3.54516 0 4.82477L0 47.1752C0 48.4548 0.518098 49.682 1.44032 50.5869C2.36254 51.4917 3.61334 52 4.91756 52H48.0824C49.3867 52 50.6375 51.4917 51.5597 50.5869C52.4819 49.682 53 48.4548 53 47.1752V4.82477C53 3.54516 52.4819 2.31796 51.5597 1.41314C50.6375 0.508323 49.3867 0 48.0824 0V0ZM26.5331 9.75C28.1909 9.75526 29.8098 10.2426 31.1853 11.1504C32.5608 12.0582 33.6311 13.3457 34.2609 14.8502C34.8908 16.3547 35.0519 18.0086 34.7239 19.6029C34.3959 21.1972 33.5935 22.6603 32.4181 23.8073C31.2428 24.9543 29.7472 25.7337 28.1205 26.0469C26.4938 26.3601 24.809 26.1932 23.279 25.5671C21.749 24.941 20.4425 23.884 19.5246 22.5296C18.6068 21.1752 18.1188 19.5842 18.1224 17.9577C18.1288 15.7751 19.0184 13.6844 20.5956 12.1452C22.1729 10.6061 24.3086 9.74451 26.5331 9.75ZM35.9226 29.4332C34.8969 30.4482 33.6588 31.2325 32.2939 31.7318C30.9643 32.2005 29.5805 32.5052 28.1743 32.6389C28.3851 32.8664 28.4755 32.9757 28.62 33.1086C30.5262 34.9877 32.4414 36.8609 34.3416 38.7459C34.6443 39.0159 34.8496 39.375 34.9267 39.7692C35.0038 40.1634 34.9486 40.5715 34.7692 40.9323C34.5865 41.3277 34.2892 41.6616 33.9143 41.8923C33.5394 42.1229 33.1036 42.2402 32.6613 42.2293C32.1438 42.1793 31.6649 41.9386 31.3212 41.5557C29.8818 40.1345 28.4152 38.74 27.0059 37.2923C26.5964 36.8727 26.4036 36.9525 26.0363 37.3159C24.5878 38.7932 23.1152 40.2202 21.6366 41.6532C21.3614 41.9508 20.9935 42.1505 20.5902 42.2211C20.187 42.2916 19.7713 42.2291 19.4082 42.0432C19.0146 41.8628 18.6824 41.5748 18.4517 41.2136C18.2209 40.8525 18.1013 40.4337 18.1073 40.0075C18.1508 39.4808 18.4013 38.9913 18.806 38.6425C20.6871 36.7929 22.5672 34.9424 24.4463 33.0909C24.5727 32.9698 24.6872 32.8368 24.8709 32.6477C22.3022 32.3848 19.9864 31.7614 18.0049 30.2427C17.758 30.0536 17.5051 29.8705 17.2792 29.6518C16.4119 28.8334 16.3246 27.8968 17.0112 26.9336C17.5984 26.1064 18.5831 25.8848 19.61 26.3605C19.8077 26.4564 19.997 26.5681 20.1761 26.6943C22.013 27.9176 24.1774 28.5806 26.3973 28.6C28.6172 28.6195 30.7934 27.9945 32.6522 26.8036C33.0074 26.5212 33.4171 26.3122 33.8568 26.1891C34.2655 26.0705 34.7031 26.0903 35.0991 26.2451C35.495 26.4 35.8265 26.681 36.04 27.043C36.5971 27.9116 36.5911 28.7595 35.9226 29.4332ZM26.5211 22.0025C27.334 21.9983 28.1274 21.7574 28.8006 21.3103C29.4737 20.8632 29.9965 20.2301 30.3024 19.4911C30.6084 18.7522 30.6838 17.9407 30.5191 17.1597C30.3544 16.3786 29.957 15.6631 29.3774 15.104C28.7977 14.5448 28.0618 14.1671 27.2631 14.0187C26.4643 13.8704 25.6387 13.9581 24.8908 14.2708C24.1429 14.5834 23.5065 15.1069 23.0623 15.7749C22.618 16.4428 22.386 17.2252 22.3955 18.0227C22.3983 18.5503 22.5073 19.0722 22.7165 19.5583C22.9257 20.0443 23.2307 20.485 23.6142 20.8549C23.9977 21.2248 24.4519 21.5167 24.9508 21.7136C25.4497 21.9106 25.9834 22.0087 26.5211 22.0025Z" fill="white"/>
</svg>
