<svg width="52" height="52" viewBox="0 0 52 52" fill="none" xmlns="http://www.w3.org/2000/svg">
<g clip-path="url(#clip0)">
<path d="M51.1144 9.29976C50.8873 7.14602 49.9278 5.13551 48.3961 3.60441C46.8645 2.07332 44.8537 1.11446 42.6998 0.88817C31.6028 -0.301591 20.4105 -0.301591 9.31347 0.88817C7.15753 1.11191 5.14393 2.06965 3.60992 3.60097C2.07591 5.1323 1.11464 7.14421 0.887112 9.29976C-0.297657 20.402 -0.297657 31.5987 0.887112 42.7009C1.11669 44.854 2.077 46.8634 3.60808 48.3945C5.13916 49.9255 7.14859 50.8859 9.30166 51.1154C20.3986 52.3052 31.591 52.3052 42.688 51.1154C44.8432 50.8884 46.8554 49.9292 48.3888 48.3979C49.9223 46.8666 50.8843 44.8558 51.1144 42.7009C52.2991 31.5987 52.2991 20.402 51.1144 9.29976ZM40.6937 35.2998C39.9373 35.4061 36.2382 35.2998 36.0462 35.2998C35.0876 35.3107 34.1636 34.9422 33.4757 34.2745C32.6957 33.5211 31.9985 32.6939 31.2362 31.9109C31.0116 31.6706 30.7675 31.4492 30.5064 31.2491C29.8978 30.7823 29.2951 30.8886 29.0085 31.6066C28.7846 32.3824 28.6284 33.1762 28.5417 33.9791C28.4914 34.7029 28.0305 35.1609 27.2151 35.2082C26.7098 35.2377 26.2046 35.2466 25.7053 35.2348C23.8853 35.2222 22.0942 34.7787 20.4787 33.9407C18.7305 32.9675 17.2073 31.6366 16.0085 30.0348C14.0378 27.5175 12.463 24.752 11.0567 21.9009C10.9828 21.7561 9.54097 18.6923 9.50552 18.5445C9.37552 18.0629 9.50552 17.5991 9.90438 17.4366C10.1585 17.3391 14.9094 17.4366 14.9892 17.4366C15.3425 17.4346 15.6874 17.5449 15.9741 17.7514C16.2608 17.9579 16.4745 18.2501 16.5846 18.5859C17.4629 20.8347 18.6653 22.9429 20.1537 24.8436C20.3621 25.0969 20.6059 25.3188 20.8776 25.5025C21.2646 25.7684 21.631 25.6768 21.7905 25.2277C21.9798 24.6088 22.091 23.9686 22.1214 23.322C22.148 22.0398 22.1214 21.1977 22.0505 19.9154C22.0032 19.0941 21.7137 18.3761 20.5023 18.1427C20.1301 18.0748 20.0976 17.7675 20.3369 17.4602C20.8362 16.825 21.5187 16.7216 22.2839 16.6861C23.4244 16.6182 24.5648 16.6625 25.7053 16.6861H25.9535C26.4498 16.6819 26.9451 16.7314 27.4307 16.8339C27.7177 16.8934 27.978 17.0435 28.1732 17.2622C28.3684 17.4808 28.4883 17.7563 28.5151 18.0482C28.5737 18.3717 28.5985 18.7004 28.5889 19.0291C28.5594 20.4266 28.4914 21.827 28.4767 23.2245C28.4629 23.779 28.5135 24.3333 28.6273 24.8761C28.7898 25.6236 29.301 25.8068 29.8092 25.2691C30.4677 24.5765 31.0713 23.8337 31.6144 23.0473C32.5763 21.6108 33.3695 20.0682 33.978 18.45C34.3089 17.6198 34.5689 17.4366 35.4553 17.4366H40.4957C40.7955 17.4313 41.0942 17.4712 41.3821 17.5548C41.484 17.5815 41.5793 17.6291 41.6619 17.6944C41.7446 17.7597 41.8129 17.8413 41.8625 17.9342C41.9122 18.0271 41.9421 18.1293 41.9505 18.2343C41.9588 18.3393 41.9453 18.445 41.911 18.5445C41.6628 19.6525 41.066 20.592 40.4337 21.4991C39.4085 22.9498 38.3271 24.365 37.2782 25.7979C37.1449 25.9871 37.0235 26.1845 36.9148 26.3889C36.5189 27.1009 36.5485 27.4998 37.1217 28.0907C38.0376 29.0332 39.0155 29.9136 39.8989 30.8827C40.5469 31.5878 41.1321 32.348 41.648 33.1548C42.2951 34.1593 41.8962 35.1166 40.6907 35.2879L40.6937 35.2998Z" fill="white"/>
</g>
<defs>
<clipPath id="clip0">
<rect width="52" height="52" fill="white"/>
</clipPath>
</defs>
</svg>
