<?xml version="1.0" encoding="UTF-8" standalone="no"?>
<svg
   xmlns:dc="http://purl.org/dc/elements/1.1/"
   xmlns:cc="http://creativecommons.org/ns#"
   xmlns:rdf="http://www.w3.org/1999/02/22-rdf-syntax-ns#"
   xmlns:svg="http://www.w3.org/2000/svg"
   xmlns="http://www.w3.org/2000/svg"
   style="fill:none"
   id="svg4556"
   version="1.1"
   viewBox="0 0 195.541 195.541"
   height="195.541"
   width="195.541">
  <metadata
     id="metadata4560">
    <rdf:RDF>
      <cc:Work
         rdf:about="">
        <dc:format>image/svg+xml</dc:format>
        <dc:type
           rdf:resource="http://purl.org/dc/dcmitype/StillImage" />
        <dc:title></dc:title>
      </cc:Work>
    </rdf:RDF>
  </metadata>
  <path
     id="path4540"
     d="M 97.7705,1.7704999 C 44.7511,1.7704999 1.7704999,44.7512 1.7704999,97.7705 c 0,53.019 42.9806001,96 96.0000001,96 53.019,0 96,-42.981 96,-96 0,-53.0193 -42.981,-96.0000001 -96,-96.0000001 z m 0,18.0390621 c 13.4712,0.017 26.70792,3.524288 38.41992,10.179688 11.712,6.6554 21.49921,16.230922 28.4082,27.794922 -11.402,11.1557 -17.66878,25.330928 -17.67578,39.986328 0.031,14.638 6.30518,28.79169 17.70118,39.92969 -6.904,11.578 -16.69316,21.16798 -28.41016,27.83398 -11.717,6.666 -24.96316,10.17927 -38.44336,10.19727 -10.2381,0 -20.37528,-2.0156 -29.83398,-5.9336 -9.4587,-3.918 -18.05357,-9.66139 -25.29297,-16.90039 -7.2393,-7.239 -12.98054,-15.83301 -16.89844,-25.29101 -3.9179,-9.459 -5.93565,-19.59794 -5.93555,-29.83594 -10e-5,-10.238 2.01765,-20.375284 5.93555,-29.833984 3.9179,-9.4587 9.65914,-18.053569 16.89844,-25.292969 7.2394,-7.2394 15.83427,-12.982491 25.29297,-16.900391 9.4587,-3.9179 19.59588,-5.933594 29.83398,-5.933594 z"
     style="fill:#ffffff;stroke:url(#paint0_linear);stroke-width:3.54099989;stroke-miterlimit:4;stroke-dasharray:none" />
  <defs
     id="defs4554">
    <linearGradient
       gradientTransform="translate(-0.22950006,-0.22950006)"
       gradientUnits="userSpaceOnUse"
       y2="18.268801"
       x2="167.08701"
       y1="183.735"
       x1="3.15711"
       id="paint0_linear">
      <stop
         id="stop4544"
         stop-color="#2F2F2F" />
      <stop
         id="stop4546"
         stop-color="#27306B"
         offset="1" />
    </linearGradient>
    <linearGradient
       gradientUnits="userSpaceOnUse"
       y2="98"
       x2="167.088"
       y1="154.041"
       x1="44.1987"
       id="paint1_linear">
      <stop
         id="stop4549"
         stop-color="#2F2F2F" />
      <stop
         id="stop4551"
         stop-color="#27306B"
         offset="1" />
    </linearGradient>
  </defs>
</svg>
