<?xml version="1.0" encoding="UTF-8" standalone="no"?>
<svg
   xmlns:dc="http://purl.org/dc/elements/1.1/"
   xmlns:cc="http://creativecommons.org/ns#"
   xmlns:rdf="http://www.w3.org/1999/02/22-rdf-syntax-ns#"
   xmlns:svg="http://www.w3.org/2000/svg"
   xmlns="http://www.w3.org/2000/svg"
   xmlns:xlink="http://www.w3.org/1999/xlink"
   style="fill:none"
   id="svg831"
   version="1.1"
   viewBox="0 0 162.47319 162.47319"
   height="162.47319"
   width="162.47319">
  <metadata
     id="metadata835">
    <rdf:RDF>
      <cc:Work
         rdf:about="">
        <dc:format>image/svg+xml</dc:format>
        <dc:type
           rdf:resource="http://purl.org/dc/dcmitype/StillImage" />
        <dc:title></dc:title>
      </cc:Work>
    </rdf:RDF>
  </metadata>
  <path
     id="path839"
     d="m 161.5767,81.236608 c -19.32459,-8.810986 -36.10996,-20.622867 -80.340109,-1e-5 16.69288,-45.857996 36.914189,-49.374787 56.809019,-56.809028 14.42273,14.945337 23.51645,35.15444 23.53109,56.809038 z"
     style="fill:url(#linearGradient857);fill-opacity:1;stroke:#37428d;stroke-width:1.77259839;stroke-linecap:butt;stroke-linejoin:miter;stroke-miterlimit:4;stroke-dasharray:none;stroke-opacity:1" />
  <path
     style="fill:url(#linearGradient901);fill-opacity:1;stroke:#37428d;stroke-width:1.77259839;stroke-linecap:butt;stroke-linejoin:miter;stroke-miterlimit:4;stroke-dasharray:none;stroke-opacity:1"
     d="M 138.04564,24.42756 C 118.15079,31.8618 97.929471,35.378589 81.236591,81.236598 60.61374,37.006444 72.425619,20.221073 81.236589,0.89649949 102.00294,1.2660395 122.72318,9.1257995 138.04564,24.42756 Z"
     id="path899" />
  <path
     id="path903"
     d="M 81.236597,0.89648249 C 72.425618,20.221064 60.613731,37.006441 81.236591,81.236598 35.378592,64.543715 31.861802,44.322406 24.427561,24.427572 39.372894,10.004848 59.582006,0.91111549 81.236597,0.89648249 Z"
     style="fill:url(#linearGradient905);fill-opacity:1;stroke:#37428d;stroke-width:1.77259839;stroke-linecap:butt;stroke-linejoin:miter;stroke-miterlimit:4;stroke-dasharray:none;stroke-opacity:1" />
  <path
     style="fill:url(#linearGradient909);fill-opacity:1;stroke:#37428d;stroke-width:1.77259839;stroke-linecap:butt;stroke-linejoin:miter;stroke-miterlimit:4;stroke-dasharray:none;stroke-opacity:1"
     d="m 24.427561,24.427572 c 7.43424,19.894846 10.951029,40.116165 56.809033,56.809045 -44.230146,20.622853 -61.01552,8.810969 -80.34009448,3e-6 C 1.2660405,60.470267 9.1257995,39.750027 24.427561,24.427572 Z"
     id="path907" />
  <path
     id="path911"
     d="M 0.89648152,81.236603 C 20.221063,90.047586 37.006441,101.85948 81.236592,81.236613 64.543716,127.09462 44.322404,130.61141 24.42757,138.04565 10.004848,123.10032 0.91111352,102.8912 0.89648152,81.236603 Z"
     style="fill:url(#linearGradient913);fill-opacity:1;stroke:#37428d;stroke-width:1.77259839;stroke-linecap:butt;stroke-linejoin:miter;stroke-miterlimit:4;stroke-dasharray:none;stroke-opacity:1" />
  <path
     style="fill:url(#linearGradient917);fill-opacity:1;stroke:#37428d;stroke-width:1.77259839;stroke-linecap:butt;stroke-linejoin:miter;stroke-miterlimit:4;stroke-dasharray:none;stroke-opacity:1"
     d="m 24.427543,138.04564 c 19.894848,-7.43424 40.11617,-10.95103 56.809048,-56.809042 20.622849,44.230162 8.81097,61.015532 0,80.340102 -20.766346,-0.36954 -41.486592,-8.2293 -56.809048,-23.53106 z"
     id="path915" />
  <path
     id="path919"
     d="m 81.236577,161.57672 c 8.810984,-19.32458 20.622873,-36.10996 1e-5,-80.34012 45.858003,16.692886 49.374793,36.9142 56.809033,56.80903 -14.94533,14.42272 -35.15444,23.51645 -56.809043,23.53109 z"
     style="fill:url(#linearGradient921);fill-opacity:1;stroke:#37428d;stroke-width:1.77259839;stroke-linecap:butt;stroke-linejoin:miter;stroke-miterlimit:4;stroke-dasharray:none;stroke-opacity:1" />
  <path
     style="fill:url(#linearGradient925);fill-opacity:1;stroke:#37428d;stroke-width:1.77259839;stroke-linecap:butt;stroke-linejoin:miter;stroke-miterlimit:4;stroke-dasharray:none;stroke-opacity:1"
     d="M 138.04563,138.04566 C 130.61139,118.15082 127.0946,97.929496 81.236594,81.236617 c 44.230156,-20.62285 61.015526,-8.81097 80.340096,-10e-6 -0.36954,20.766353 -8.2293,41.486593 -23.53106,56.809053 z"
     id="path923" />
  <defs
     id="defs829">
    <linearGradient
       gradientTransform="translate(308.14062,-3.517587)"
       gradientUnits="userSpaceOnUse"
       y2="18.268801"
       x2="167.08701"
       y1="183.735"
       x1="3.15711"
       id="paint0_linear">
      <stop
         id="stop819"
         stop-color="#2F2F2F" />
      <stop
         id="stop821"
         stop-color="#27306B"
         offset="1" />
    </linearGradient>
    <linearGradient
       gradientUnits="userSpaceOnUse"
       y2="98"
       x2="167.088"
       y1="154.041"
       x1="44.1987"
       id="paint1_linear">
      <stop
         id="stop824"
         stop-color="#2F2F2F" />
      <stop
         id="stop826"
         stop-color="#27306B"
         offset="1" />
    </linearGradient>
    <linearGradient
       gradientTransform="translate(-16.763399,-16.763404)"
       gradientUnits="userSpaceOnUse"
       y2="95.178589"
       x2="100.50397"
       y1="44.313107"
       x1="167.1992"
       id="linearGradient857"
       xlink:href="#paint1_linear" />
    <linearGradient
       gradientTransform="rotate(-45,69.383064,109.85351)"
       y2="95.178589"
       x2="100.50397"
       y1="44.313107"
       x1="167.1992"
       gradientUnits="userSpaceOnUse"
       id="linearGradient901"
       xlink:href="#paint1_linear" />
    <linearGradient
       y2="95.178589"
       x2="100.50397"
       y1="44.313107"
       x1="167.1992"
       gradientTransform="rotate(-90,81.236584,98.000003)"
       gradientUnits="userSpaceOnUse"
       id="linearGradient905"
       xlink:href="#paint1_linear" />
    <linearGradient
       y2="95.178589"
       x2="100.50397"
       y1="44.313107"
       x1="167.1992"
       gradientTransform="rotate(-135,86.146481,93.090124)"
       gradientUnits="userSpaceOnUse"
       id="linearGradient909"
       xlink:href="#paint1_linear" />
    <linearGradient
       y2="95.178589"
       x2="100.50397"
       y1="44.313107"
       x1="167.1992"
       gradientTransform="rotate(-180,89.618291,89.618306)"
       gradientUnits="userSpaceOnUse"
       id="linearGradient913"
       xlink:href="#paint1_linear" />
    <linearGradient
       y2="95.178589"
       x2="100.50397"
       y1="44.313107"
       x1="167.1992"
       gradientTransform="rotate(135,93.0901,86.146485)"
       gradientUnits="userSpaceOnUse"
       id="linearGradient917"
       xlink:href="#paint1_linear" />
    <linearGradient
       y2="95.178589"
       x2="100.50397"
       y1="44.313107"
       x1="167.1992"
       gradientTransform="rotate(90,97.999979,81.236599)"
       gradientUnits="userSpaceOnUse"
       id="linearGradient921"
       xlink:href="#paint1_linear" />
    <linearGradient
       y2="95.178589"
       x2="100.50397"
       y1="44.313107"
       x1="167.1992"
       gradientTransform="rotate(45,109.85347,69.383096)"
       gradientUnits="userSpaceOnUse"
       id="linearGradient925"
       xlink:href="#paint1_linear" />
  </defs>
</svg>
